<mxfile host="Electron" agent="Mozilla/5.0 (Windows NT 10.0; Win64; x64) AppleWebKit/537.36 (KHTML, like Gecko) draw.io/24.7.8 Chrome/128.0.6613.36 Electron/32.0.1 Safari/537.36" version="24.7.8">
  <diagram id="R2lEEEUBdFMjLlhIrx00" name="Page-1">
    <mxGraphModel dx="2465" dy="2055" grid="1" gridSize="10" guides="1" tooltips="1" connect="1" arrows="1" fold="1" page="1" pageScale="1" pageWidth="850" pageHeight="1100" math="0" shadow="0" extFonts="Permanent Marker^https://fonts.googleapis.com/css?family=Permanent+Marker">
      <root>
        <mxCell id="0" />
        <mxCell id="1" parent="0" />
        <mxCell id="pNNXKs1wGyWGnKnzis4k-1" value="&lt;span style=&quot;font-size: 14px;&quot;&gt;Patient&lt;/span&gt;" style="whiteSpace=wrap;html=1;align=center;fontSize=14;fontStyle=1" parent="1" vertex="1">
          <mxGeometry x="-190" y="-960" width="100" height="40" as="geometry" />
        </mxCell>
        <mxCell id="pNNXKs1wGyWGnKnzis4k-2" value="&lt;span style=&quot;font-size: 14px;&quot;&gt;Health Provider&lt;/span&gt;" style="whiteSpace=wrap;html=1;align=center;fontSize=14;fontStyle=1" parent="1" vertex="1">
          <mxGeometry x="1134" y="-511.82000000000005" width="100" height="40" as="geometry" />
        </mxCell>
        <mxCell id="pNNXKs1wGyWGnKnzis4k-3" value="&lt;span style=&quot;font-size: 14px;&quot;&gt;Government Regulator&lt;/span&gt;" style="whiteSpace=wrap;html=1;align=center;fontSize=14;fontStyle=1" parent="1" vertex="1">
          <mxGeometry x="1406.5" y="-865.8199999999999" width="100" height="40" as="geometry" />
        </mxCell>
        <mxCell id="pNNXKs1wGyWGnKnzis4k-4" value="&lt;span style=&quot;font-size: 14px;&quot;&gt;Patient ID&lt;/span&gt;" style="ellipse;whiteSpace=wrap;html=1;align=center;fontStyle=5;fontSize=14;" parent="1" vertex="1">
          <mxGeometry x="70" y="-990" width="110" height="40" as="geometry" />
        </mxCell>
        <mxCell id="pNNXKs1wGyWGnKnzis4k-5" value="" style="endArrow=none;html=1;rounded=0;exitX=0;exitY=0.5;exitDx=0;exitDy=0;fontStyle=1;fontSize=14;entryX=1;entryY=0.25;entryDx=0;entryDy=0;" parent="1" source="pNNXKs1wGyWGnKnzis4k-4" target="pNNXKs1wGyWGnKnzis4k-1" edge="1">
          <mxGeometry width="50" height="50" relative="1" as="geometry">
            <mxPoint x="-180" y="-840" as="sourcePoint" />
            <mxPoint x="-82" y="-950" as="targetPoint" />
            <Array as="points" />
          </mxGeometry>
        </mxCell>
        <mxCell id="pNNXKs1wGyWGnKnzis4k-6" value="&lt;span style=&quot;font-size: 14px;&quot;&gt;&lt;font style=&quot;font-size: 14px;&quot;&gt;Name&lt;/font&gt;&lt;/span&gt;" style="ellipse;whiteSpace=wrap;html=1;align=center;fontStyle=1;fontSize=14;" parent="1" vertex="1">
          <mxGeometry x="-500" y="-950" width="100" height="40" as="geometry" />
        </mxCell>
        <mxCell id="pNNXKs1wGyWGnKnzis4k-7" value="" style="endArrow=none;html=1;rounded=0;fontStyle=1;fontSize=14;" parent="1" target="pNNXKs1wGyWGnKnzis4k-6" edge="1">
          <mxGeometry width="50" height="50" relative="1" as="geometry">
            <mxPoint x="-192" y="-930" as="sourcePoint" />
            <mxPoint x="150" y="-780" as="targetPoint" />
            <Array as="points">
              <mxPoint x="-292" y="-930" />
            </Array>
          </mxGeometry>
        </mxCell>
        <mxCell id="pNNXKs1wGyWGnKnzis4k-8" value="&lt;span style=&quot;font-size: 14px;&quot;&gt;&lt;span style=&quot;font-size: 14px;&quot;&gt;Email&lt;/span&gt;&lt;/span&gt;" style="ellipse;whiteSpace=wrap;html=1;align=center;fontStyle=1;fontSize=14;" parent="1" vertex="1">
          <mxGeometry x="70" y="-1040" width="100" height="40" as="geometry" />
        </mxCell>
        <mxCell id="pNNXKs1wGyWGnKnzis4k-9" value="" style="endArrow=none;html=1;rounded=0;exitX=1;exitY=0;exitDx=0;exitDy=0;fontStyle=1;fontSize=14;" parent="1" source="pNNXKs1wGyWGnKnzis4k-1" target="pNNXKs1wGyWGnKnzis4k-8" edge="1">
          <mxGeometry width="50" height="50" relative="1" as="geometry">
            <mxPoint x="-60" y="-985" as="sourcePoint" />
            <mxPoint x="205" y="-845" as="targetPoint" />
            <Array as="points">
              <mxPoint x="38" y="-1000" />
            </Array>
          </mxGeometry>
        </mxCell>
        <mxCell id="pNNXKs1wGyWGnKnzis4k-10" value="&lt;span style=&quot;font-size: 14px;&quot;&gt;&lt;span style=&quot;font-size: 14px;&quot;&gt;Age&lt;/span&gt;&lt;/span&gt;" style="ellipse;whiteSpace=wrap;html=1;align=center;fontStyle=1;fontSize=14;" parent="1" vertex="1">
          <mxGeometry x="80" y="-950" width="100" height="40" as="geometry" />
        </mxCell>
        <mxCell id="pNNXKs1wGyWGnKnzis4k-11" value="" style="endArrow=none;html=1;rounded=0;fontStyle=1;fontSize=14;entryX=0;entryY=0.5;entryDx=0;entryDy=0;exitX=1;exitY=0.75;exitDx=0;exitDy=0;" parent="1" source="pNNXKs1wGyWGnKnzis4k-1" target="pNNXKs1wGyWGnKnzis4k-10" edge="1">
          <mxGeometry width="50" height="50" relative="1" as="geometry">
            <mxPoint x="-82" y="-930" as="sourcePoint" />
            <mxPoint x="161" y="-930.5" as="targetPoint" />
          </mxGeometry>
        </mxCell>
        <mxCell id="pNNXKs1wGyWGnKnzis4k-12" value="&lt;span style=&quot;font-size: 14px;&quot;&gt;&lt;font style=&quot;font-size: 14px;&quot;&gt;Gender&lt;/font&gt;&lt;/span&gt;" style="ellipse;whiteSpace=wrap;html=1;align=center;fontStyle=1;fontSize=14;" parent="1" vertex="1">
          <mxGeometry x="38" y="-1100" width="100" height="40" as="geometry" />
        </mxCell>
        <mxCell id="pNNXKs1wGyWGnKnzis4k-13" value="" style="endArrow=none;html=1;rounded=0;exitX=0.75;exitY=0;exitDx=0;exitDy=0;fontStyle=1;fontSize=14;" parent="1" source="pNNXKs1wGyWGnKnzis4k-1" target="pNNXKs1wGyWGnKnzis4k-12" edge="1">
          <mxGeometry width="50" height="50" relative="1" as="geometry">
            <mxPoint x="-90" y="-1000" as="sourcePoint" />
            <mxPoint x="390" y="-800" as="targetPoint" />
            <Array as="points">
              <mxPoint x="-72" y="-990" />
            </Array>
          </mxGeometry>
        </mxCell>
        <mxCell id="pNNXKs1wGyWGnKnzis4k-14" value="" style="endArrow=none;html=1;rounded=0;entryX=0.5;entryY=1;entryDx=0;entryDy=0;exitX=0.62;exitY=0;exitDx=0;exitDy=0;fontStyle=1;fontSize=14;exitPerimeter=0;" parent="1" source="pNNXKs1wGyWGnKnzis4k-1" target="pNNXKs1wGyWGnKnzis4k-16" edge="1">
          <mxGeometry width="50" height="50" relative="1" as="geometry">
            <mxPoint x="-120" y="-1010" as="sourcePoint" />
            <mxPoint x="-44.81900929708695" y="-1001.6382707982874" as="targetPoint" />
          </mxGeometry>
        </mxCell>
        <mxCell id="pNNXKs1wGyWGnKnzis4k-15" value="&lt;span style=&quot;font-size: 14px;&quot;&gt;Appointment&lt;/span&gt;" style="whiteSpace=wrap;html=1;align=center;fontSize=14;fontStyle=1" parent="1" vertex="1">
          <mxGeometry x="518" y="-586.82" width="100" height="40" as="geometry" />
        </mxCell>
        <mxCell id="pNNXKs1wGyWGnKnzis4k-16" value="&lt;span style=&quot;font-size: 14px;&quot;&gt;&lt;font style=&quot;font-size: 14px;&quot;&gt;Phone No.&lt;/font&gt;&lt;/span&gt;" style="ellipse;shape=doubleEllipse;margin=3;whiteSpace=wrap;html=1;align=center;fontStyle=1;fontSize=14;" parent="1" vertex="1">
          <mxGeometry x="-101" y="-1100" width="100" height="40" as="geometry" />
        </mxCell>
        <mxCell id="pNNXKs1wGyWGnKnzis4k-17" value="&lt;span style=&quot;font-size: 14px;&quot;&gt;InsuranceCompany&lt;/span&gt;" style="whiteSpace=wrap;html=1;align=center;fontSize=14;fontStyle=1" parent="1" vertex="1">
          <mxGeometry x="-717" y="-690" width="140" height="40" as="geometry" />
        </mxCell>
        <mxCell id="pNNXKs1wGyWGnKnzis4k-18" value="&lt;span style=&quot;font-size: 14px;&quot;&gt;Payment&lt;/span&gt;" style="whiteSpace=wrap;html=1;align=center;fontSize=14;fontStyle=1" parent="1" vertex="1">
          <mxGeometry x="155.38000000000002" y="-412.82000000000005" width="100" height="40" as="geometry" />
        </mxCell>
        <mxCell id="pNNXKs1wGyWGnKnzis4k-19" value="&lt;span style=&quot;font-size: 14px;&quot;&gt;Report&lt;/span&gt;" style="whiteSpace=wrap;html=1;align=center;fontSize=14;fontStyle=1" parent="1" vertex="1">
          <mxGeometry x="810" y="-123.73000000000002" width="100" height="40" as="geometry" />
        </mxCell>
        <mxCell id="pNNXKs1wGyWGnKnzis4k-20" value="&lt;span style=&quot;font-size: 14px;&quot;&gt;&lt;font style=&quot;font-size: 14px;&quot;&gt;&lt;u style=&quot;font-size: 14px;&quot;&gt;National ID&lt;/u&gt;&lt;/font&gt;&lt;/span&gt;" style="ellipse;whiteSpace=wrap;html=1;align=center;fontStyle=1;fontSize=14;" parent="1" vertex="1">
          <mxGeometry x="-500" y="-1000" width="100" height="40" as="geometry" />
        </mxCell>
        <mxCell id="pNNXKs1wGyWGnKnzis4k-21" value="" style="endArrow=none;html=1;rounded=0;exitX=0;exitY=0.25;exitDx=0;exitDy=0;fontStyle=1;fontSize=14;" parent="1" source="pNNXKs1wGyWGnKnzis4k-1" target="pNNXKs1wGyWGnKnzis4k-20" edge="1">
          <mxGeometry width="50" height="50" relative="1" as="geometry">
            <mxPoint x="-330" y="-920" as="sourcePoint" />
            <mxPoint x="-65" y="-780" as="targetPoint" />
            <Array as="points" />
          </mxGeometry>
        </mxCell>
        <mxCell id="pNNXKs1wGyWGnKnzis4k-22" value="&lt;span style=&quot;font-size: 14px;&quot;&gt;&lt;font style=&quot;font-size: 14px;&quot;&gt;Insurance Status&lt;/font&gt;&lt;/span&gt;" style="ellipse;whiteSpace=wrap;html=1;align=center;fontStyle=1;fontSize=14;" parent="1" vertex="1">
          <mxGeometry x="-460" y="-1050" width="100" height="40" as="geometry" />
        </mxCell>
        <mxCell id="pNNXKs1wGyWGnKnzis4k-23" value="" style="endArrow=none;html=1;rounded=0;fontStyle=1;fontSize=14;" parent="1" target="pNNXKs1wGyWGnKnzis4k-22" edge="1">
          <mxGeometry width="50" height="50" relative="1" as="geometry">
            <mxPoint x="-182" y="-960" as="sourcePoint" />
            <mxPoint x="-80" y="-830" as="targetPoint" />
          </mxGeometry>
        </mxCell>
        <mxCell id="pNNXKs1wGyWGnKnzis4k-24" value="&lt;span style=&quot;font-size: 14px;&quot;&gt;&lt;font style=&quot;font-size: 14px;&quot;&gt;Birthdate&lt;/font&gt;&lt;/span&gt;" style="ellipse;whiteSpace=wrap;html=1;align=center;fontStyle=1;fontSize=14;" parent="1" vertex="1">
          <mxGeometry x="-352" y="-1090" width="100" height="40" as="geometry" />
        </mxCell>
        <mxCell id="pNNXKs1wGyWGnKnzis4k-25" value="" style="endArrow=none;html=1;rounded=0;fontStyle=1;fontSize=14;" parent="1" target="pNNXKs1wGyWGnKnzis4k-24" edge="1">
          <mxGeometry width="50" height="50" relative="1" as="geometry">
            <mxPoint x="-162" y="-960" as="sourcePoint" />
            <mxPoint x="-60" y="-875" as="targetPoint" />
          </mxGeometry>
        </mxCell>
        <mxCell id="pNNXKs1wGyWGnKnzis4k-26" value="" style="endArrow=none;html=1;rounded=0;exitX=0.5;exitY=1;exitDx=0;exitDy=0;entryX=0.5;entryY=0;entryDx=0;entryDy=0;fontStyle=1;fontSize=14;" parent="1" source="pNNXKs1wGyWGnKnzis4k-27" target="pNNXKs1wGyWGnKnzis4k-1" edge="1">
          <mxGeometry width="50" height="50" relative="1" as="geometry">
            <mxPoint x="-175" y="-980" as="sourcePoint" />
            <mxPoint x="-150" y="-979" as="targetPoint" />
          </mxGeometry>
        </mxCell>
        <mxCell id="pNNXKs1wGyWGnKnzis4k-27" value="&lt;span style=&quot;font-size: 14px;&quot;&gt;&lt;font style=&quot;font-size: 14px;&quot;&gt;HealthRecords&lt;/font&gt;&lt;/span&gt;" style="ellipse;shape=doubleEllipse;margin=3;whiteSpace=wrap;html=1;align=center;fontStyle=1;fontSize=14;" parent="1" vertex="1">
          <mxGeometry x="-230" y="-1100" width="120" height="40" as="geometry" />
        </mxCell>
        <mxCell id="pNNXKs1wGyWGnKnzis4k-28" value="" style="endArrow=none;html=1;rounded=0;exitX=1;exitY=0.5;exitDx=0;exitDy=0;fontStyle=1;fontSize=14;" parent="1" source="pNNXKs1wGyWGnKnzis4k-2" edge="1">
          <mxGeometry width="50" height="50" relative="1" as="geometry">
            <mxPoint x="1474" y="-451.82000000000005" as="sourcePoint" />
            <mxPoint x="1313" y="-421.82000000000005" as="targetPoint" />
          </mxGeometry>
        </mxCell>
        <mxCell id="pNNXKs1wGyWGnKnzis4k-29" value="" style="endArrow=none;html=1;rounded=0;exitX=1;exitY=0.5;exitDx=0;exitDy=0;entryX=0;entryY=0.5;entryDx=0;entryDy=0;fontStyle=1;fontSize=14;" parent="1" source="pNNXKs1wGyWGnKnzis4k-2" target="ppLR7rw1qFO7lx_NXZap-60" edge="1">
          <mxGeometry width="50" height="50" relative="1" as="geometry">
            <mxPoint x="1499" y="-491.82000000000005" as="sourcePoint" />
            <mxPoint x="1290" y="-516.8199999999999" as="targetPoint" />
          </mxGeometry>
        </mxCell>
        <mxCell id="pNNXKs1wGyWGnKnzis4k-31" value="&lt;span style=&quot;font-size: 14px;&quot;&gt;&lt;font style=&quot;font-size: 14px;&quot;&gt;Specialty&lt;/font&gt;&lt;/span&gt;" style="ellipse;whiteSpace=wrap;html=1;align=center;fontStyle=1;fontSize=14;" parent="1" vertex="1">
          <mxGeometry x="1290" y="-490.00000000000006" width="100" height="40" as="geometry" />
        </mxCell>
        <mxCell id="pNNXKs1wGyWGnKnzis4k-32" value="" style="endArrow=none;html=1;rounded=0;exitX=1;exitY=0.5;exitDx=0;exitDy=0;fontStyle=1;fontSize=14;entryX=0;entryY=0.5;entryDx=0;entryDy=0;entryPerimeter=0;" parent="1" source="pNNXKs1wGyWGnKnzis4k-2" target="pNNXKs1wGyWGnKnzis4k-31" edge="1">
          <mxGeometry width="50" height="50" relative="1" as="geometry">
            <mxPoint x="1324" y="-501.82000000000005" as="sourcePoint" />
            <mxPoint x="1878.9999999999995" y="-341.82000000000005" as="targetPoint" />
          </mxGeometry>
        </mxCell>
        <mxCell id="pNNXKs1wGyWGnKnzis4k-33" value="&lt;span style=&quot;font-size: 14px;&quot;&gt;&lt;font style=&quot;font-size: 14px;&quot;&gt;&lt;u style=&quot;font-size: 14px;&quot;&gt;ProviderID&lt;/u&gt;&lt;/font&gt;&lt;/span&gt;" style="ellipse;whiteSpace=wrap;html=1;align=center;fontStyle=1;fontSize=14;" parent="1" vertex="1">
          <mxGeometry x="1289.9999999999998" y="-586.8199999999999" width="100" height="40" as="geometry" />
        </mxCell>
        <mxCell id="pNNXKs1wGyWGnKnzis4k-34" value="" style="endArrow=none;html=1;rounded=0;exitX=1;exitY=0.5;exitDx=0;exitDy=0;fontStyle=1;fontSize=14;entryX=0;entryY=0.5;entryDx=0;entryDy=0;" parent="1" source="pNNXKs1wGyWGnKnzis4k-2" target="pNNXKs1wGyWGnKnzis4k-33" edge="1">
          <mxGeometry width="50" height="50" relative="1" as="geometry">
            <mxPoint x="1034" y="-521.82" as="sourcePoint" />
            <mxPoint x="1589" y="-361.82000000000005" as="targetPoint" />
          </mxGeometry>
        </mxCell>
        <mxCell id="pNNXKs1wGyWGnKnzis4k-35" value="&lt;span style=&quot;font-size: 14px;&quot;&gt;&lt;font style=&quot;font-size: 14px;&quot;&gt;&lt;u style=&quot;font-size: 14px;&quot;&gt;AppointmentID&lt;/u&gt;&lt;/font&gt;&lt;/span&gt;" style="ellipse;whiteSpace=wrap;html=1;align=center;fontStyle=1;fontSize=14;" parent="1" vertex="1">
          <mxGeometry x="497.99999999999994" y="-648.8200000000003" width="120" height="40" as="geometry" />
        </mxCell>
        <mxCell id="pNNXKs1wGyWGnKnzis4k-36" value="" style="endArrow=none;html=1;rounded=0;exitX=0.5;exitY=0;exitDx=0;exitDy=0;fontStyle=1;fontSize=14;" parent="1" source="pNNXKs1wGyWGnKnzis4k-15" target="pNNXKs1wGyWGnKnzis4k-35" edge="1">
          <mxGeometry width="50" height="50" relative="1" as="geometry">
            <mxPoint x="628" y="-676.8200000000002" as="sourcePoint" />
            <mxPoint x="1183" y="-516.82" as="targetPoint" />
          </mxGeometry>
        </mxCell>
        <mxCell id="pNNXKs1wGyWGnKnzis4k-37" value="&lt;span style=&quot;font-size: 14px;&quot;&gt;&lt;span style=&quot;font-size: 14px;&quot;&gt;Time&lt;/span&gt;&lt;/span&gt;" style="ellipse;whiteSpace=wrap;html=1;align=center;fontStyle=1;fontSize=14;" parent="1" vertex="1">
          <mxGeometry x="634.5" y="-511.82" width="100" height="40" as="geometry" />
        </mxCell>
        <mxCell id="pNNXKs1wGyWGnKnzis4k-38" value="" style="endArrow=none;html=1;rounded=0;fontStyle=1;fontSize=14;exitX=0.5;exitY=1;exitDx=0;exitDy=0;" parent="1" source="pNNXKs1wGyWGnKnzis4k-15" target="pNNXKs1wGyWGnKnzis4k-37" edge="1">
          <mxGeometry width="50" height="50" relative="1" as="geometry">
            <mxPoint x="540" y="-492" as="sourcePoint" />
            <mxPoint x="1253" y="-441.82000000000005" as="targetPoint" />
          </mxGeometry>
        </mxCell>
        <mxCell id="pNNXKs1wGyWGnKnzis4k-39" value="&lt;span style=&quot;font-size: 14px;&quot;&gt;&lt;font style=&quot;font-size: 14px;&quot;&gt;Type of illness&lt;/font&gt;&lt;/span&gt;" style="ellipse;whiteSpace=wrap;html=1;align=center;fontStyle=1;fontSize=14;" parent="1" vertex="1">
          <mxGeometry x="634.5" y="-559.3700000000001" width="110" height="40" as="geometry" />
        </mxCell>
        <mxCell id="pNNXKs1wGyWGnKnzis4k-40" value="" style="endArrow=none;html=1;rounded=0;exitX=0.5;exitY=1;exitDx=0;exitDy=0;fontStyle=1;fontSize=14;" parent="1" source="pNNXKs1wGyWGnKnzis4k-15" target="pNNXKs1wGyWGnKnzis4k-39" edge="1">
          <mxGeometry width="50" height="50" relative="1" as="geometry">
            <mxPoint x="462.99999999999994" y="-556.82" as="sourcePoint" />
            <mxPoint x="1018" y="-396.82000000000005" as="targetPoint" />
          </mxGeometry>
        </mxCell>
        <mxCell id="pNNXKs1wGyWGnKnzis4k-41" value="EmergencyStatus" style="ellipse;whiteSpace=wrap;html=1;align=center;fontStyle=1;fontSize=14;" parent="1" vertex="1">
          <mxGeometry x="360" y="-656.35" width="130" height="47.53" as="geometry" />
        </mxCell>
        <mxCell id="pNNXKs1wGyWGnKnzis4k-42" value="" style="endArrow=none;html=1;rounded=0;exitX=0.25;exitY=0;exitDx=0;exitDy=0;fontStyle=1;fontSize=14;" parent="1" source="pNNXKs1wGyWGnKnzis4k-15" target="pNNXKs1wGyWGnKnzis4k-41" edge="1">
          <mxGeometry width="50" height="50" relative="1" as="geometry">
            <mxPoint x="397.99999999999994" y="-556.82" as="sourcePoint" />
            <mxPoint x="953" y="-396.82000000000005" as="targetPoint" />
          </mxGeometry>
        </mxCell>
        <mxCell id="pNNXKs1wGyWGnKnzis4k-45" value="&lt;span style=&quot;font-size: 14px;&quot;&gt;Care Giver&lt;/span&gt;" style="shape=ext;margin=3;double=1;whiteSpace=wrap;html=1;align=center;fontStyle=1;fontSize=14;" parent="1" vertex="1">
          <mxGeometry x="-650" y="-173.73000000000002" width="100" height="40" as="geometry" />
        </mxCell>
        <mxCell id="pNNXKs1wGyWGnKnzis4k-46" value="" style="endArrow=none;html=1;rounded=0;exitX=0.5;exitY=1;exitDx=0;exitDy=0;fontStyle=1;fontSize=14;" parent="1" source="pNNXKs1wGyWGnKnzis4k-45" target="pNNXKs1wGyWGnKnzis4k-85" edge="1">
          <mxGeometry relative="1" as="geometry">
            <mxPoint x="-320" y="-293.73" as="sourcePoint" />
            <mxPoint x="-590" y="-83.72999999999999" as="targetPoint" />
          </mxGeometry>
        </mxCell>
        <mxCell id="pNNXKs1wGyWGnKnzis4k-47" value="&lt;font style=&quot;font-size: 14px;&quot;&gt;&lt;span style=&quot;font-size: 14px;&quot;&gt;Relationship&lt;/span&gt;&lt;/font&gt;" style="ellipse;whiteSpace=wrap;html=1;align=center;fontStyle=1;fontSize=14;" parent="1" vertex="1">
          <mxGeometry x="-760" y="-83.72999999999999" width="100" height="40" as="geometry" />
        </mxCell>
        <mxCell id="pNNXKs1wGyWGnKnzis4k-48" value="" style="endArrow=none;html=1;rounded=0;exitX=0.5;exitY=0;exitDx=0;exitDy=0;entryX=0.25;entryY=1;entryDx=0;entryDy=0;fontStyle=1;fontSize=14;" parent="1" source="pNNXKs1wGyWGnKnzis4k-47" target="pNNXKs1wGyWGnKnzis4k-45" edge="1">
          <mxGeometry relative="1" as="geometry">
            <mxPoint x="-810" y="-93.72999999999999" as="sourcePoint" />
            <mxPoint x="-730" y="-143.73" as="targetPoint" />
          </mxGeometry>
        </mxCell>
        <mxCell id="pNNXKs1wGyWGnKnzis4k-49" value="&lt;font style=&quot;font-size: 14px;&quot;&gt;&lt;span style=&quot;font-size: 14px;&quot;&gt;Phone#&lt;/span&gt;&lt;/font&gt;" style="ellipse;whiteSpace=wrap;html=1;align=center;fontStyle=1;fontSize=14;" parent="1" vertex="1">
          <mxGeometry x="-820" y="-123.72999999999999" width="100" height="40" as="geometry" />
        </mxCell>
        <mxCell id="pNNXKs1wGyWGnKnzis4k-50" value="" style="endArrow=none;html=1;rounded=0;exitX=0.5;exitY=0;exitDx=0;exitDy=0;entryX=0;entryY=1;entryDx=0;entryDy=0;fontStyle=1;fontSize=14;" parent="1" source="pNNXKs1wGyWGnKnzis4k-49" target="pNNXKs1wGyWGnKnzis4k-45" edge="1">
          <mxGeometry relative="1" as="geometry">
            <mxPoint x="-320" y="-293.73" as="sourcePoint" />
            <mxPoint x="-240" y="-343.73" as="targetPoint" />
          </mxGeometry>
        </mxCell>
        <mxCell id="pNNXKs1wGyWGnKnzis4k-51" value="&lt;font style=&quot;font-size: 14px;&quot;&gt;&lt;span style=&quot;font-size: 14px;&quot;&gt;Email&lt;/span&gt;&lt;/font&gt;" style="ellipse;whiteSpace=wrap;html=1;align=center;fontStyle=1;fontSize=14;" parent="1" vertex="1">
          <mxGeometry x="-525" y="-63.72999999999999" width="100" height="40" as="geometry" />
        </mxCell>
        <mxCell id="pNNXKs1wGyWGnKnzis4k-52" value="" style="endArrow=none;html=1;rounded=0;exitX=0.5;exitY=0;exitDx=0;exitDy=0;entryX=1;entryY=1;entryDx=0;entryDy=0;fontStyle=1;fontSize=14;" parent="1" source="pNNXKs1wGyWGnKnzis4k-51" target="pNNXKs1wGyWGnKnzis4k-45" edge="1">
          <mxGeometry relative="1" as="geometry">
            <mxPoint x="-320" y="-293.73" as="sourcePoint" />
            <mxPoint x="-240" y="-343.73" as="targetPoint" />
          </mxGeometry>
        </mxCell>
        <mxCell id="pNNXKs1wGyWGnKnzis4k-53" value="&lt;font style=&quot;font-size: 14px;&quot;&gt;&lt;span style=&quot;font-size: 14px;&quot;&gt;ContactInfo&lt;/span&gt;&lt;/font&gt;" style="ellipse;whiteSpace=wrap;html=1;align=center;fontStyle=1;fontSize=14;" parent="1" vertex="1">
          <mxGeometry x="-560" y="-632.8199999999999" width="100" height="40" as="geometry" />
        </mxCell>
        <mxCell id="pNNXKs1wGyWGnKnzis4k-54" value="" style="endArrow=none;html=1;rounded=0;exitX=0.5;exitY=0;exitDx=0;exitDy=0;entryX=0.5;entryY=1;entryDx=0;entryDy=0;fontStyle=1;fontSize=14;" parent="1" source="pNNXKs1wGyWGnKnzis4k-53" target="pNNXKs1wGyWGnKnzis4k-17" edge="1">
          <mxGeometry relative="1" as="geometry">
            <mxPoint x="-997" y="-869.37" as="sourcePoint" />
            <mxPoint x="-917" y="-919.37" as="targetPoint" />
          </mxGeometry>
        </mxCell>
        <mxCell id="pNNXKs1wGyWGnKnzis4k-55" value="&lt;font style=&quot;font-size: 14px;&quot;&gt;&lt;span style=&quot;font-size: 14px;&quot;&gt;InsurancePackage&lt;/span&gt;&lt;/font&gt;" style="ellipse;whiteSpace=wrap;html=1;align=center;fontStyle=1;fontSize=14;" parent="1" vertex="1">
          <mxGeometry x="-690" y="-541.8199999999999" width="130" height="50" as="geometry" />
        </mxCell>
        <mxCell id="pNNXKs1wGyWGnKnzis4k-56" value="" style="endArrow=none;html=1;rounded=0;exitX=0.5;exitY=0;exitDx=0;exitDy=0;entryX=0.5;entryY=1;entryDx=0;entryDy=0;fontStyle=1;fontSize=14;" parent="1" source="pNNXKs1wGyWGnKnzis4k-55" target="pNNXKs1wGyWGnKnzis4k-17" edge="1">
          <mxGeometry relative="1" as="geometry">
            <mxPoint x="-997" y="-869.37" as="sourcePoint" />
            <mxPoint x="-917" y="-919.37" as="targetPoint" />
          </mxGeometry>
        </mxCell>
        <mxCell id="pNNXKs1wGyWGnKnzis4k-57" value="&lt;font style=&quot;font-size: 14px;&quot;&gt;&lt;span style=&quot;font-size: 14px;&quot;&gt;CompanyName&lt;/span&gt;&lt;/font&gt;" style="ellipse;whiteSpace=wrap;html=1;align=center;fontStyle=1;fontSize=14;" parent="1" vertex="1">
          <mxGeometry x="-750" y="-617.5300000000001" width="110" height="50" as="geometry" />
        </mxCell>
        <mxCell id="pNNXKs1wGyWGnKnzis4k-58" value="" style="endArrow=none;html=1;rounded=0;exitX=0.5;exitY=0;exitDx=0;exitDy=0;entryX=0.5;entryY=1;entryDx=0;entryDy=0;fontStyle=1;fontSize=14;" parent="1" source="pNNXKs1wGyWGnKnzis4k-57" target="pNNXKs1wGyWGnKnzis4k-17" edge="1">
          <mxGeometry relative="1" as="geometry">
            <mxPoint x="-997" y="-869.37" as="sourcePoint" />
            <mxPoint x="-917" y="-919.37" as="targetPoint" />
          </mxGeometry>
        </mxCell>
        <mxCell id="pNNXKs1wGyWGnKnzis4k-59" value="" style="endArrow=none;html=1;rounded=0;exitX=0.5;exitY=0;exitDx=0;exitDy=0;entryX=0.5;entryY=1;entryDx=0;entryDy=0;fontStyle=1;fontSize=14;" parent="1" source="pNNXKs1wGyWGnKnzis4k-60" target="pNNXKs1wGyWGnKnzis4k-17" edge="1">
          <mxGeometry relative="1" as="geometry">
            <mxPoint x="-892" y="-599.37" as="sourcePoint" />
            <mxPoint x="-917" y="-919.37" as="targetPoint" />
          </mxGeometry>
        </mxCell>
        <mxCell id="pNNXKs1wGyWGnKnzis4k-60" value="&lt;span style=&quot;font-size: 14px;&quot;&gt;&lt;font style=&quot;font-size: 14px;&quot;&gt;InsuranceID&lt;/font&gt;&lt;/span&gt;" style="ellipse;whiteSpace=wrap;html=1;align=center;fontStyle=5;fontSize=14;" parent="1" vertex="1">
          <mxGeometry x="-850" y="-590" width="100" height="40" as="geometry" />
        </mxCell>
        <mxCell id="pNNXKs1wGyWGnKnzis4k-61" value="&lt;span style=&quot;font-size: 14px;&quot;&gt;&lt;span style=&quot;font-size: 14px;&quot;&gt;Phone&lt;/span&gt;&lt;/span&gt;" style="ellipse;whiteSpace=wrap;html=1;align=center;fontStyle=1;fontSize=14;" parent="1" vertex="1">
          <mxGeometry x="-580" y="-582.73" width="70" height="31.82" as="geometry" />
        </mxCell>
        <mxCell id="pNNXKs1wGyWGnKnzis4k-62" value="" style="endArrow=none;html=1;rounded=0;fontStyle=1;fontSize=14;entryX=0.5;entryY=1;entryDx=0;entryDy=0;exitX=0.5;exitY=0;exitDx=0;exitDy=0;" parent="1" source="pNNXKs1wGyWGnKnzis4k-61" target="pNNXKs1wGyWGnKnzis4k-53" edge="1">
          <mxGeometry relative="1" as="geometry">
            <mxPoint x="-510" y="-547" as="sourcePoint" />
            <mxPoint x="-510" y="-594" as="targetPoint" />
          </mxGeometry>
        </mxCell>
        <mxCell id="pNNXKs1wGyWGnKnzis4k-63" value="&lt;font style=&quot;font-size: 14px;&quot;&gt;&lt;span style=&quot;font-size: 14px;&quot;&gt;Email&lt;/span&gt;&lt;/font&gt;" style="ellipse;whiteSpace=wrap;html=1;align=center;fontStyle=1;fontSize=14;" parent="1" vertex="1">
          <mxGeometry x="-500" y="-582.73" width="70" height="31.11" as="geometry" />
        </mxCell>
        <mxCell id="pNNXKs1wGyWGnKnzis4k-64" value="" style="endArrow=none;html=1;rounded=0;exitX=0;exitY=0;exitDx=0;exitDy=0;entryX=0.5;entryY=1;entryDx=0;entryDy=0;fontStyle=1;fontSize=14;" parent="1" source="pNNXKs1wGyWGnKnzis4k-63" target="pNNXKs1wGyWGnKnzis4k-53" edge="1">
          <mxGeometry relative="1" as="geometry">
            <mxPoint x="-447" y="-519.37" as="sourcePoint" />
            <mxPoint x="-432" y="-549.37" as="targetPoint" />
          </mxGeometry>
        </mxCell>
        <mxCell id="pNNXKs1wGyWGnKnzis4k-68" value="" style="endArrow=none;html=1;rounded=0;entryX=0.5;entryY=1;entryDx=0;entryDy=0;fontStyle=1;fontSize=14;exitX=0.5;exitY=0;exitDx=0;exitDy=0;" parent="1" source="DgcD9Y-jSIW44tKop5Hs-6" target="pNNXKs1wGyWGnKnzis4k-18" edge="1">
          <mxGeometry relative="1" as="geometry">
            <mxPoint x="154.47" y="-312.82000000000005" as="sourcePoint" />
            <mxPoint x="-497.6199999999999" y="-330.32000000000005" as="targetPoint" />
          </mxGeometry>
        </mxCell>
        <mxCell id="pNNXKs1wGyWGnKnzis4k-69" value="&lt;font style=&quot;font-size: 14px;&quot;&gt;&lt;span style=&quot;font-size: 14px;&quot;&gt;Name&lt;/span&gt;&lt;/font&gt;" style="ellipse;whiteSpace=wrap;html=1;align=center;fontStyle=1;fontSize=14;" parent="1" vertex="1">
          <mxGeometry x="1406.5" y="-970" width="100" height="40" as="geometry" />
        </mxCell>
        <mxCell id="pNNXKs1wGyWGnKnzis4k-70" value="" style="endArrow=none;html=1;rounded=0;exitX=0.5;exitY=1;exitDx=0;exitDy=0;entryX=0.5;entryY=0;entryDx=0;entryDy=0;fontStyle=1;fontSize=14;" parent="1" source="pNNXKs1wGyWGnKnzis4k-69" target="pNNXKs1wGyWGnKnzis4k-3" edge="1">
          <mxGeometry relative="1" as="geometry">
            <mxPoint x="1376.5" y="-735.8199999999999" as="sourcePoint" />
            <mxPoint x="1456.5" y="-785.8199999999999" as="targetPoint" />
          </mxGeometry>
        </mxCell>
        <mxCell id="pNNXKs1wGyWGnKnzis4k-71" value="&lt;font style=&quot;font-size: 14px;&quot;&gt;&lt;span style=&quot;font-size: 14px;&quot;&gt;Amount&lt;/span&gt;&lt;/font&gt;" style="ellipse;whiteSpace=wrap;html=1;align=center;fontStyle=1;fontSize=14;" parent="1" vertex="1">
          <mxGeometry x="207.69" y="-322.82000000000005" width="129.39" height="40" as="geometry" />
        </mxCell>
        <mxCell id="pNNXKs1wGyWGnKnzis4k-72" value="" style="endArrow=none;html=1;rounded=0;exitX=0.5;exitY=0;exitDx=0;exitDy=0;entryX=0.5;entryY=1;entryDx=0;entryDy=0;fontStyle=1;fontSize=14;" parent="1" source="pNNXKs1wGyWGnKnzis4k-71" target="pNNXKs1wGyWGnKnzis4k-18" edge="1">
          <mxGeometry relative="1" as="geometry">
            <mxPoint x="292.38" y="-90.32000000000004" as="sourcePoint" />
            <mxPoint x="372.38" y="-140.32000000000002" as="targetPoint" />
          </mxGeometry>
        </mxCell>
        <mxCell id="pNNXKs1wGyWGnKnzis4k-73" value="&lt;font style=&quot;font-size: 14px;&quot;&gt;&lt;span style=&quot;font-size: 14px;&quot;&gt;PaymentMethod&lt;/span&gt;&lt;/font&gt;" style="ellipse;whiteSpace=wrap;html=1;align=center;fontStyle=1;fontSize=14;" parent="1" vertex="1">
          <mxGeometry x="295.47" y="-362.82000000000005" width="130" height="40" as="geometry" />
        </mxCell>
        <mxCell id="pNNXKs1wGyWGnKnzis4k-74" value="" style="endArrow=none;html=1;rounded=0;exitX=0.5;exitY=0;exitDx=0;exitDy=0;entryX=0.5;entryY=1;entryDx=0;entryDy=0;fontStyle=1;fontSize=14;" parent="1" source="pNNXKs1wGyWGnKnzis4k-73" target="pNNXKs1wGyWGnKnzis4k-18" edge="1">
          <mxGeometry relative="1" as="geometry">
            <mxPoint x="332.38" y="-120.32000000000004" as="sourcePoint" />
            <mxPoint x="412.38" y="-170.32000000000002" as="targetPoint" />
          </mxGeometry>
        </mxCell>
        <mxCell id="pNNXKs1wGyWGnKnzis4k-75" value="&lt;font style=&quot;font-size: 14px;&quot;&gt;&lt;span style=&quot;font-size: 14px;&quot;&gt;PaymentDate&lt;/span&gt;&lt;/font&gt;" style="ellipse;whiteSpace=wrap;html=1;align=center;fontStyle=1;fontSize=14;" parent="1" vertex="1">
          <mxGeometry x="9" y="-349.2300000000001" width="100" height="40" as="geometry" />
        </mxCell>
        <mxCell id="pNNXKs1wGyWGnKnzis4k-76" value="" style="endArrow=none;html=1;rounded=0;entryX=0.5;entryY=1;entryDx=0;entryDy=0;fontStyle=1;fontSize=14;exitX=0.5;exitY=0;exitDx=0;exitDy=0;" parent="1" source="pNNXKs1wGyWGnKnzis4k-75" target="pNNXKs1wGyWGnKnzis4k-18" edge="1">
          <mxGeometry relative="1" as="geometry">
            <mxPoint x="118.47" y="-352.82000000000005" as="sourcePoint" />
            <mxPoint x="-75.61999999999998" y="-180.32000000000002" as="targetPoint" />
          </mxGeometry>
        </mxCell>
        <mxCell id="pNNXKs1wGyWGnKnzis4k-77" value="" style="endArrow=none;html=1;rounded=0;entryX=0.5;entryY=0;entryDx=0;entryDy=0;fontStyle=1;fontSize=14;exitX=0.5;exitY=1;exitDx=0;exitDy=0;" parent="1" source="pNNXKs1wGyWGnKnzis4k-330" target="pNNXKs1wGyWGnKnzis4k-19" edge="1">
          <mxGeometry relative="1" as="geometry">
            <mxPoint x="860" y="-310" as="sourcePoint" />
            <mxPoint x="461.62999999999994" y="-262.73" as="targetPoint" />
          </mxGeometry>
        </mxCell>
        <mxCell id="pNNXKs1wGyWGnKnzis4k-78" value="&lt;font style=&quot;font-size: 14px;&quot;&gt;&lt;span style=&quot;font-size: 14px;&quot;&gt;ReportType&lt;/span&gt;&lt;/font&gt;" style="ellipse;whiteSpace=wrap;html=1;align=center;fontStyle=1;fontSize=14;" parent="1" vertex="1">
          <mxGeometry x="919.9999999999999" y="-230.00000000000003" width="100" height="40" as="geometry" />
        </mxCell>
        <mxCell id="pNNXKs1wGyWGnKnzis4k-79" value="" style="endArrow=none;html=1;rounded=0;exitX=0.5;exitY=1;exitDx=0;exitDy=0;entryX=0.5;entryY=0;entryDx=0;entryDy=0;fontStyle=1;fontSize=14;" parent="1" source="pNNXKs1wGyWGnKnzis4k-78" target="pNNXKs1wGyWGnKnzis4k-19" edge="1">
          <mxGeometry relative="1" as="geometry">
            <mxPoint x="511.62999999999994" y="-222.73000000000002" as="sourcePoint" />
            <mxPoint x="591.6300000000001" y="-272.73" as="targetPoint" />
          </mxGeometry>
        </mxCell>
        <mxCell id="pNNXKs1wGyWGnKnzis4k-80" value="&lt;font style=&quot;font-size: 14px;&quot;&gt;&lt;span style=&quot;font-size: 14px;&quot;&gt;GenerateDate&lt;/span&gt;&lt;/font&gt;" style="ellipse;whiteSpace=wrap;html=1;align=center;fontStyle=1;fontSize=14;" parent="1" vertex="1">
          <mxGeometry x="695" y="-230.00000000000003" width="100" height="40" as="geometry" />
        </mxCell>
        <mxCell id="pNNXKs1wGyWGnKnzis4k-81" value="" style="endArrow=none;html=1;rounded=0;exitX=0.5;exitY=1;exitDx=0;exitDy=0;entryX=0.5;entryY=0;entryDx=0;entryDy=0;fontStyle=1;fontSize=14;" parent="1" source="pNNXKs1wGyWGnKnzis4k-80" target="pNNXKs1wGyWGnKnzis4k-19" edge="1">
          <mxGeometry relative="1" as="geometry">
            <mxPoint x="750.46" y="-70.73000000000002" as="sourcePoint" />
            <mxPoint x="371.62999999999994" y="-282.73" as="targetPoint" />
          </mxGeometry>
        </mxCell>
        <mxCell id="pNNXKs1wGyWGnKnzis4k-85" value="&lt;span style=&quot;border-bottom: 1px dotted; font-size: 14px;&quot;&gt;&lt;span style=&quot;font-size: 14px;&quot;&gt;&lt;font style=&quot;font-size: 14px;&quot;&gt;Name&lt;/font&gt;&lt;/span&gt;&lt;/span&gt;" style="ellipse;whiteSpace=wrap;html=1;align=center;fontStyle=1;fontSize=14;" parent="1" vertex="1">
          <mxGeometry x="-640" y="-63.72999999999999" width="100" height="40" as="geometry" />
        </mxCell>
        <mxCell id="pNNXKs1wGyWGnKnzis4k-86" value="&lt;span style=&quot;font-size: 14px;&quot;&gt;Health Record&lt;/span&gt;" style="whiteSpace=wrap;html=1;align=center;fontSize=14;fontStyle=1" parent="1" vertex="1">
          <mxGeometry x="744.5" y="-875.8199999999999" width="145" height="40" as="geometry" />
        </mxCell>
        <object label="Record_id" id="pNNXKs1wGyWGnKnzis4k-87">
          <mxCell style="ellipse;whiteSpace=wrap;html=1;align=center;fontStyle=5;fontSize=14;" parent="1" vertex="1">
            <mxGeometry x="969.5" y="-965.8199999999999" width="120" height="80" as="geometry" />
          </mxCell>
        </object>
        <mxCell id="pNNXKs1wGyWGnKnzis4k-88" value="DateOfIncident" style="ellipse;whiteSpace=wrap;html=1;align=center;fontStyle=1;fontSize=14;" parent="1" vertex="1">
          <mxGeometry x="849.5" y="-995.82" width="110" height="80" as="geometry" />
        </mxCell>
        <mxCell id="pNNXKs1wGyWGnKnzis4k-89" value="TypeOfIncident" style="ellipse;whiteSpace=wrap;html=1;align=center;fontStyle=1;fontSize=14;" parent="1" vertex="1">
          <mxGeometry x="729.5" y="-995.82" width="110" height="80" as="geometry" />
        </mxCell>
        <mxCell id="pNNXKs1wGyWGnKnzis4k-90" value="Details" style="ellipse;whiteSpace=wrap;html=1;align=center;fontStyle=1;fontSize=14;" parent="1" vertex="1">
          <mxGeometry x="619.5" y="-953.3199999999999" width="110" height="55" as="geometry" />
        </mxCell>
        <mxCell id="pNNXKs1wGyWGnKnzis4k-91" value="" style="endArrow=none;html=1;rounded=0;entryX=0;entryY=1;entryDx=0;entryDy=0;exitX=0.5;exitY=0;exitDx=0;exitDy=0;fontStyle=1;fontSize=14;" parent="1" source="pNNXKs1wGyWGnKnzis4k-86" target="pNNXKs1wGyWGnKnzis4k-88" edge="1">
          <mxGeometry relative="1" as="geometry">
            <mxPoint x="659.5" y="-825.8199999999999" as="sourcePoint" />
            <mxPoint x="819.5" y="-825.8199999999999" as="targetPoint" />
          </mxGeometry>
        </mxCell>
        <mxCell id="pNNXKs1wGyWGnKnzis4k-92" value="" style="endArrow=none;html=1;rounded=0;exitX=0;exitY=0.5;exitDx=0;exitDy=0;entryX=0.5;entryY=0;entryDx=0;entryDy=0;fontStyle=1;fontSize=14;" parent="1" source="pNNXKs1wGyWGnKnzis4k-87" target="pNNXKs1wGyWGnKnzis4k-86" edge="1">
          <mxGeometry relative="1" as="geometry">
            <mxPoint x="659.5" y="-825.8199999999999" as="sourcePoint" />
            <mxPoint x="819.5" y="-825.8199999999999" as="targetPoint" />
          </mxGeometry>
        </mxCell>
        <mxCell id="pNNXKs1wGyWGnKnzis4k-93" value="" style="endArrow=none;html=1;rounded=0;entryX=0.5;entryY=0;entryDx=0;entryDy=0;exitX=0.5;exitY=1;exitDx=0;exitDy=0;fontStyle=1;fontSize=14;" parent="1" source="pNNXKs1wGyWGnKnzis4k-89" target="pNNXKs1wGyWGnKnzis4k-86" edge="1">
          <mxGeometry relative="1" as="geometry">
            <mxPoint x="659.5" y="-825.8199999999999" as="sourcePoint" />
            <mxPoint x="819.5" y="-825.8199999999999" as="targetPoint" />
            <Array as="points" />
          </mxGeometry>
        </mxCell>
        <mxCell id="pNNXKs1wGyWGnKnzis4k-94" value="" style="endArrow=none;html=1;rounded=0;exitX=1;exitY=0.5;exitDx=0;exitDy=0;entryX=0.5;entryY=0;entryDx=0;entryDy=0;fontStyle=1;fontSize=14;" parent="1" source="pNNXKs1wGyWGnKnzis4k-90" target="pNNXKs1wGyWGnKnzis4k-86" edge="1">
          <mxGeometry relative="1" as="geometry">
            <mxPoint x="659.5" y="-825.8199999999999" as="sourcePoint" />
            <mxPoint x="819.5" y="-825.8199999999999" as="targetPoint" />
          </mxGeometry>
        </mxCell>
        <mxCell id="pNNXKs1wGyWGnKnzis4k-95" value="Requests" style="shape=rhombus;perimeter=rhombusPerimeter;whiteSpace=wrap;html=1;align=center;fontStyle=1;fontSize=14;" parent="1" vertex="1">
          <mxGeometry x="-62" y="-601.11" width="120" height="60" as="geometry" />
        </mxCell>
        <mxCell id="pNNXKs1wGyWGnKnzis4k-98" value="" style="endArrow=none;html=1;rounded=0;exitX=0;exitY=0.5;exitDx=0;exitDy=0;entryX=1;entryY=0.5;entryDx=0;entryDy=0;fontStyle=1;fontSize=14;" parent="1" source="pNNXKs1wGyWGnKnzis4k-15" target="pNNXKs1wGyWGnKnzis4k-95" edge="1">
          <mxGeometry relative="1" as="geometry">
            <mxPoint x="-103" y="-596.82" as="sourcePoint" />
            <mxPoint x="-13" y="-451.82000000000005" as="targetPoint" />
          </mxGeometry>
        </mxCell>
        <mxCell id="pNNXKs1wGyWGnKnzis4k-99" value="Assigned_to" style="shape=rhombus;perimeter=rhombusPerimeter;whiteSpace=wrap;html=1;align=center;fontStyle=1;fontSize=14;" parent="1" vertex="1">
          <mxGeometry x="783" y="-596.82" width="120" height="60" as="geometry" />
        </mxCell>
        <mxCell id="pNNXKs1wGyWGnKnzis4k-100" value="" style="endArrow=none;html=1;rounded=0;exitX=1;exitY=0.5;exitDx=0;exitDy=0;entryX=0;entryY=0.5;entryDx=0;entryDy=0;fontStyle=1;fontSize=14;" parent="1" source="pNNXKs1wGyWGnKnzis4k-15" target="pNNXKs1wGyWGnKnzis4k-99" edge="1">
          <mxGeometry width="50" height="50" relative="1" as="geometry">
            <mxPoint x="714" y="-518.82" as="sourcePoint" />
            <mxPoint x="794" y="-538.82" as="targetPoint" />
          </mxGeometry>
        </mxCell>
        <mxCell id="pNNXKs1wGyWGnKnzis4k-101" value="" style="endArrow=none;html=1;rounded=0;exitX=0;exitY=1;exitDx=0;exitDy=0;entryX=1;entryY=0.5;entryDx=0;entryDy=0;fontStyle=1;fontSize=14;" parent="1" source="pNNXKs1wGyWGnKnzis4k-2" target="pNNXKs1wGyWGnKnzis4k-99" edge="1">
          <mxGeometry width="50" height="50" relative="1" as="geometry">
            <mxPoint x="900.61" y="-405.53000000000003" as="sourcePoint" />
            <mxPoint x="1133.6100000000001" y="-375.53000000000003" as="targetPoint" />
          </mxGeometry>
        </mxCell>
        <mxCell id="pNNXKs1wGyWGnKnzis4k-102" value="" style="endArrow=none;html=1;rounded=0;entryX=0.5;entryY=0;entryDx=0;entryDy=0;fontStyle=1;fontSize=14;exitX=0.5;exitY=1;exitDx=0;exitDy=0;" parent="1" source="pNNXKs1wGyWGnKnzis4k-1" target="pNNXKs1wGyWGnKnzis4k-153" edge="1">
          <mxGeometry relative="1" as="geometry">
            <mxPoint x="-143" y="23" as="sourcePoint" />
            <mxPoint x="-240" y="-202.50000000000023" as="targetPoint" />
          </mxGeometry>
        </mxCell>
        <mxCell id="pNNXKs1wGyWGnKnzis4k-103" value="(0,N)" style="edgeLabel;html=1;align=center;verticalAlign=middle;resizable=0;points=[];fontStyle=1;fontSize=14;" parent="pNNXKs1wGyWGnKnzis4k-102" vertex="1" connectable="0">
          <mxGeometry x="0.6762" y="-2" relative="1" as="geometry">
            <mxPoint x="-24" y="60" as="offset" />
          </mxGeometry>
        </mxCell>
        <mxCell id="pNNXKs1wGyWGnKnzis4k-104" value="" style="endArrow=none;html=1;rounded=0;exitX=0.5;exitY=0;exitDx=0;exitDy=0;fontStyle=1;fontSize=14;" parent="1" source="pNNXKs1wGyWGnKnzis4k-45" target="pNNXKs1wGyWGnKnzis4k-153" edge="1">
          <mxGeometry relative="1" as="geometry">
            <mxPoint x="-405" y="-252.23000000000002" as="sourcePoint" />
            <mxPoint x="-365" y="-264.23000000000025" as="targetPoint" />
          </mxGeometry>
        </mxCell>
        <mxCell id="pNNXKs1wGyWGnKnzis4k-105" value="&lt;span style=&quot;font-size: 14px;&quot;&gt;(1,N)&lt;/span&gt;" style="edgeLabel;html=1;align=center;verticalAlign=middle;resizable=0;points=[];fontStyle=1;fontSize=14;" parent="pNNXKs1wGyWGnKnzis4k-104" vertex="1" connectable="0">
          <mxGeometry x="0.7219" y="-1" relative="1" as="geometry">
            <mxPoint as="offset" />
          </mxGeometry>
        </mxCell>
        <mxCell id="pNNXKs1wGyWGnKnzis4k-106" value="Has" style="shape=rhombus;perimeter=rhombusPerimeter;whiteSpace=wrap;html=1;align=center;fontStyle=1;fontSize=14;" parent="1" vertex="1">
          <mxGeometry x="429.5299999999999" y="-844.9999999999999" width="120" height="60" as="geometry" />
        </mxCell>
        <mxCell id="pNNXKs1wGyWGnKnzis4k-107" value="" style="endArrow=none;html=1;rounded=0;entryX=0;entryY=0.5;entryDx=0;entryDy=0;exitX=1;exitY=1;exitDx=0;exitDy=0;fontStyle=1;fontSize=14;" parent="1" source="pNNXKs1wGyWGnKnzis4k-1" target="pNNXKs1wGyWGnKnzis4k-106" edge="1">
          <mxGeometry relative="1" as="geometry">
            <mxPoint x="361" y="-210" as="sourcePoint" />
            <mxPoint x="521" y="-210" as="targetPoint" />
            <Array as="points" />
          </mxGeometry>
        </mxCell>
        <mxCell id="pNNXKs1wGyWGnKnzis4k-108" value="(0,N)" style="edgeLabel;html=1;align=center;verticalAlign=middle;resizable=0;points=[];fontStyle=1;fontSize=14;" parent="pNNXKs1wGyWGnKnzis4k-107" vertex="1" connectable="0">
          <mxGeometry x="0.875" y="2" relative="1" as="geometry">
            <mxPoint x="-12" as="offset" />
          </mxGeometry>
        </mxCell>
        <mxCell id="pNNXKs1wGyWGnKnzis4k-109" value="" style="endArrow=none;html=1;rounded=0;entryX=0;entryY=0.5;entryDx=0;entryDy=0;exitX=1;exitY=0.5;exitDx=0;exitDy=0;fontStyle=1;fontSize=14;" parent="1" source="pNNXKs1wGyWGnKnzis4k-106" target="pNNXKs1wGyWGnKnzis4k-86" edge="1">
          <mxGeometry relative="1" as="geometry">
            <mxPoint x="554.12" y="-721.3199999999999" as="sourcePoint" />
            <mxPoint x="499.11999999999995" y="-913.3199999999999" as="targetPoint" />
          </mxGeometry>
        </mxCell>
        <mxCell id="pNNXKs1wGyWGnKnzis4k-110" value="(1,1)" style="edgeLabel;html=1;align=center;verticalAlign=middle;resizable=0;points=[];fontStyle=1;fontSize=14;" parent="pNNXKs1wGyWGnKnzis4k-109" vertex="1" connectable="0">
          <mxGeometry x="-0.8282" y="1" relative="1" as="geometry">
            <mxPoint x="12" y="-3" as="offset" />
          </mxGeometry>
        </mxCell>
        <mxCell id="pNNXKs1wGyWGnKnzis4k-111" value="Generates" style="shape=rhombus;perimeter=rhombusPerimeter;whiteSpace=wrap;html=1;align=center;fontStyle=1;fontSize=14;" parent="1" vertex="1">
          <mxGeometry x="889.67" y="-745.8199999999999" width="120" height="60" as="geometry" />
        </mxCell>
        <mxCell id="pNNXKs1wGyWGnKnzis4k-112" value="" style="endArrow=none;html=1;rounded=0;exitX=0.454;exitY=1.014;exitDx=0;exitDy=0;exitPerimeter=0;entryX=0;entryY=0;entryDx=0;entryDy=0;fontStyle=1;fontSize=14;" parent="1" source="pNNXKs1wGyWGnKnzis4k-86" target="pNNXKs1wGyWGnKnzis4k-111" edge="1">
          <mxGeometry relative="1" as="geometry">
            <mxPoint x="559.5" y="-756.8199999999999" as="sourcePoint" />
            <mxPoint x="812.5" y="-755.8199999999999" as="targetPoint" />
          </mxGeometry>
        </mxCell>
        <mxCell id="pNNXKs1wGyWGnKnzis4k-113" value="(1,N)" style="edgeLabel;html=1;align=center;verticalAlign=middle;resizable=0;points=[];fontStyle=1;fontSize=14;" parent="pNNXKs1wGyWGnKnzis4k-112" vertex="1" connectable="0">
          <mxGeometry x="0.5352" relative="1" as="geometry">
            <mxPoint y="-3" as="offset" />
          </mxGeometry>
        </mxCell>
        <mxCell id="pNNXKs1wGyWGnKnzis4k-114" value="" style="endArrow=none;html=1;rounded=0;entryX=1;entryY=1;entryDx=0;entryDy=0;exitX=0.134;exitY=-0.004;exitDx=0;exitDy=0;exitPerimeter=0;fontStyle=1;fontSize=14;" parent="1" source="pNNXKs1wGyWGnKnzis4k-2" target="pNNXKs1wGyWGnKnzis4k-111" edge="1">
          <mxGeometry relative="1" as="geometry">
            <mxPoint x="590" y="-89" as="sourcePoint" />
            <mxPoint x="750" y="-89" as="targetPoint" />
          </mxGeometry>
        </mxCell>
        <mxCell id="pNNXKs1wGyWGnKnzis4k-115" value="&lt;strong style=&quot;font-size: 14px;&quot;&gt;(0,N)&lt;/strong&gt;" style="edgeLabel;html=1;align=center;verticalAlign=middle;resizable=0;points=[];fontStyle=1;fontSize=14;" parent="pNNXKs1wGyWGnKnzis4k-114" vertex="1" connectable="0">
          <mxGeometry x="0.6048" relative="1" as="geometry">
            <mxPoint x="-83" y="104" as="offset" />
          </mxGeometry>
        </mxCell>
        <mxCell id="pNNXKs1wGyWGnKnzis4k-116" value="Covered_by" style="shape=rhombus;perimeter=rhombusPerimeter;whiteSpace=wrap;html=1;align=center;fontStyle=1;fontSize=14;" parent="1" vertex="1">
          <mxGeometry x="-520" y="-785.82" width="120" height="60" as="geometry" />
        </mxCell>
        <mxCell id="pNNXKs1wGyWGnKnzis4k-117" value="" style="endArrow=none;html=1;rounded=0;entryX=0;entryY=1;entryDx=0;entryDy=0;exitX=1;exitY=0;exitDx=0;exitDy=0;fontStyle=1;fontSize=14;" parent="1" source="pNNXKs1wGyWGnKnzis4k-116" target="pNNXKs1wGyWGnKnzis4k-1" edge="1">
          <mxGeometry relative="1" as="geometry">
            <mxPoint x="-356" y="123" as="sourcePoint" />
            <mxPoint x="-196" y="123" as="targetPoint" />
            <Array as="points" />
          </mxGeometry>
        </mxCell>
        <mxCell id="pNNXKs1wGyWGnKnzis4k-118" value="&lt;strong style=&quot;font-size: 14px;&quot;&gt;(0,1)&lt;/strong&gt;" style="edgeLabel;html=1;align=center;verticalAlign=middle;resizable=0;points=[];fontStyle=1;fontSize=14;" parent="pNNXKs1wGyWGnKnzis4k-117" vertex="1" connectable="0">
          <mxGeometry x="-0.703" relative="1" as="geometry">
            <mxPoint x="-7" y="5" as="offset" />
          </mxGeometry>
        </mxCell>
        <mxCell id="pNNXKs1wGyWGnKnzis4k-119" value="" style="endArrow=none;html=1;rounded=0;entryX=0;entryY=1;entryDx=0;entryDy=0;fontStyle=1;fontSize=14;exitX=0.5;exitY=0;exitDx=0;exitDy=0;" parent="1" source="pNNXKs1wGyWGnKnzis4k-17" target="pNNXKs1wGyWGnKnzis4k-116" edge="1">
          <mxGeometry relative="1" as="geometry">
            <mxPoint x="-877.22" y="-684.1800000000001" as="sourcePoint" />
            <mxPoint x="-393.22" y="-482.18" as="targetPoint" />
          </mxGeometry>
        </mxCell>
        <mxCell id="pNNXKs1wGyWGnKnzis4k-120" value="&lt;span style=&quot;font-size: 14px;&quot;&gt;(0,N)&lt;/span&gt;" style="edgeLabel;html=1;align=center;verticalAlign=middle;resizable=0;points=[];fontStyle=1;fontSize=14;" parent="pNNXKs1wGyWGnKnzis4k-119" vertex="1" connectable="0">
          <mxGeometry x="0.8274" y="-1" relative="1" as="geometry">
            <mxPoint x="-19" y="3" as="offset" />
          </mxGeometry>
        </mxCell>
        <mxCell id="pNNXKs1wGyWGnKnzis4k-121" value="Costs" style="shape=rhombus;perimeter=rhombusPerimeter;whiteSpace=wrap;html=1;align=center;fontStyle=1;fontSize=14;" parent="1" vertex="1">
          <mxGeometry x="270.00000000000006" y="-507.53000000000003" width="120" height="60" as="geometry" />
        </mxCell>
        <mxCell id="pNNXKs1wGyWGnKnzis4k-122" value="" style="endArrow=none;html=1;rounded=0;exitX=1;exitY=0;exitDx=0;exitDy=0;entryX=0;entryY=1;entryDx=0;entryDy=0;fontStyle=1;fontSize=14;" parent="1" source="pNNXKs1wGyWGnKnzis4k-121" target="pNNXKs1wGyWGnKnzis4k-15" edge="1">
          <mxGeometry relative="1" as="geometry">
            <mxPoint x="237.00000000000045" y="-417.82000000000005" as="sourcePoint" />
            <mxPoint x="219.99999999999997" y="-453.82000000000005" as="targetPoint" />
          </mxGeometry>
        </mxCell>
        <mxCell id="pNNXKs1wGyWGnKnzis4k-123" value="(0,1)" style="edgeLabel;html=1;align=center;verticalAlign=middle;resizable=0;points=[];fontStyle=1;fontSize=14;" parent="pNNXKs1wGyWGnKnzis4k-122" vertex="1" connectable="0">
          <mxGeometry x="-0.8186" relative="1" as="geometry">
            <mxPoint x="13" y="-7" as="offset" />
          </mxGeometry>
        </mxCell>
        <mxCell id="pNNXKs1wGyWGnKnzis4k-124" value="" style="endArrow=none;html=1;rounded=0;entryX=0.5;entryY=0;entryDx=0;entryDy=0;exitX=0;exitY=1;exitDx=0;exitDy=0;fontStyle=1;fontSize=14;" parent="1" source="pNNXKs1wGyWGnKnzis4k-121" target="pNNXKs1wGyWGnKnzis4k-18" edge="1">
          <mxGeometry relative="1" as="geometry">
            <mxPoint x="-0.9199999999999875" y="15.409999999999982" as="sourcePoint" />
            <mxPoint x="159.08" y="15.409999999999982" as="targetPoint" />
          </mxGeometry>
        </mxCell>
        <mxCell id="pNNXKs1wGyWGnKnzis4k-125" value="(1,N)" style="edgeLabel;html=1;align=center;verticalAlign=middle;resizable=0;points=[];fontStyle=1;fontSize=14;" parent="pNNXKs1wGyWGnKnzis4k-124" vertex="1" connectable="0">
          <mxGeometry x="-0.6881" y="1" relative="1" as="geometry">
            <mxPoint x="-16" y="7" as="offset" />
          </mxGeometry>
        </mxCell>
        <mxCell id="pNNXKs1wGyWGnKnzis4k-126" value="&lt;span style=&quot;font-size: 14px;&quot;&gt;&lt;font style=&quot;font-size: 14px;&quot;&gt;Receives&lt;/font&gt;&lt;/span&gt;" style="shape=rhombus;perimeter=rhombusPerimeter;whiteSpace=wrap;html=1;align=center;fontStyle=1;fontSize=14;" parent="1" vertex="1">
          <mxGeometry x="-356" y="-183.73000000000002" width="120" height="60" as="geometry" />
        </mxCell>
        <mxCell id="pNNXKs1wGyWGnKnzis4k-127" value="" style="endArrow=none;html=1;rounded=0;exitX=1;exitY=0.5;exitDx=0;exitDy=0;entryX=0;entryY=0.5;entryDx=0;entryDy=0;fontStyle=1;fontSize=14;" parent="1" source="pNNXKs1wGyWGnKnzis4k-126" target="ppLR7rw1qFO7lx_NXZap-3" edge="1">
          <mxGeometry relative="1" as="geometry">
            <mxPoint x="-184" y="565" as="sourcePoint" />
            <mxPoint x="109" y="-153.73000000000002" as="targetPoint" />
          </mxGeometry>
        </mxCell>
        <mxCell id="pNNXKs1wGyWGnKnzis4k-128" value="(1,N)" style="edgeLabel;html=1;align=center;verticalAlign=middle;resizable=0;points=[];fontStyle=1;fontSize=14;" parent="pNNXKs1wGyWGnKnzis4k-127" vertex="1" connectable="0">
          <mxGeometry x="-0.8092" relative="1" as="geometry">
            <mxPoint x="4" as="offset" />
          </mxGeometry>
        </mxCell>
        <mxCell id="pNNXKs1wGyWGnKnzis4k-129" value="" style="endArrow=none;html=1;rounded=0;exitX=0.5;exitY=1;exitDx=0;exitDy=0;entryX=0.5;entryY=0;entryDx=0;entryDy=0;fontStyle=1;fontSize=14;" parent="1" source="pNNXKs1wGyWGnKnzis4k-1" target="pNNXKs1wGyWGnKnzis4k-139" edge="1">
          <mxGeometry relative="1" as="geometry">
            <mxPoint x="-137" y="276" as="sourcePoint" />
            <mxPoint x="-130" y="317" as="targetPoint" />
          </mxGeometry>
        </mxCell>
        <mxCell id="pNNXKs1wGyWGnKnzis4k-130" value="" style="endArrow=none;html=1;rounded=0;exitX=1;exitY=0.5;exitDx=0;exitDy=0;entryX=0;entryY=0.5;entryDx=0;entryDy=0;fontStyle=1;fontSize=14;" parent="1" source="pNNXKs1wGyWGnKnzis4k-45" target="pNNXKs1wGyWGnKnzis4k-126" edge="1">
          <mxGeometry relative="1" as="geometry">
            <mxPoint x="-455" y="-148.23" as="sourcePoint" />
            <mxPoint x="-295" y="-148.23" as="targetPoint" />
          </mxGeometry>
        </mxCell>
        <mxCell id="pNNXKs1wGyWGnKnzis4k-131" value="Generates" style="shape=rhombus;perimeter=rhombusPerimeter;whiteSpace=wrap;html=1;align=center;fontStyle=1;fontSize=14;rotation=0;" parent="1" vertex="1">
          <mxGeometry x="1124" y="-221.23000000000002" width="120" height="60" as="geometry" />
        </mxCell>
        <mxCell id="pNNXKs1wGyWGnKnzis4k-132" value="" style="endArrow=none;html=1;rounded=0;entryX=0;entryY=1;entryDx=0;entryDy=0;fontStyle=1;fontSize=14;exitX=1;exitY=0.5;exitDx=0;exitDy=0;" parent="1" source="pNNXKs1wGyWGnKnzis4k-19" target="pNNXKs1wGyWGnKnzis4k-131" edge="1">
          <mxGeometry relative="1" as="geometry">
            <mxPoint x="1010" y="-160" as="sourcePoint" />
            <mxPoint x="1561.19" y="-327.23" as="targetPoint" />
          </mxGeometry>
        </mxCell>
        <mxCell id="pNNXKs1wGyWGnKnzis4k-134" value="Involves" style="shape=rhombus;perimeter=rhombusPerimeter;whiteSpace=wrap;html=1;align=center;fontStyle=1;fontSize=14;" parent="1" vertex="1">
          <mxGeometry x="663" y="-745.8199999999999" width="120" height="60" as="geometry" />
        </mxCell>
        <mxCell id="pNNXKs1wGyWGnKnzis4k-135" value="" style="endArrow=none;html=1;rounded=0;exitX=1;exitY=0;exitDx=0;exitDy=0;entryX=0.5;entryY=1;entryDx=0;entryDy=0;fontStyle=1;fontSize=14;" parent="1" source="pNNXKs1wGyWGnKnzis4k-134" target="pNNXKs1wGyWGnKnzis4k-86" edge="1">
          <mxGeometry relative="1" as="geometry">
            <mxPoint x="641.5" y="-508.82" as="sourcePoint" />
            <mxPoint x="801.5" y="-508.82" as="targetPoint" />
          </mxGeometry>
        </mxCell>
        <mxCell id="pNNXKs1wGyWGnKnzis4k-136" value="&lt;strong style=&quot;font-size: 14px;&quot;&gt;(1,N)&lt;/strong&gt;" style="edgeLabel;html=1;align=center;verticalAlign=middle;resizable=0;points=[];fontStyle=1;fontSize=14;" parent="pNNXKs1wGyWGnKnzis4k-135" vertex="1" connectable="0">
          <mxGeometry x="-0.4631" y="1" relative="1" as="geometry">
            <mxPoint x="-2" y="1" as="offset" />
          </mxGeometry>
        </mxCell>
        <mxCell id="pNNXKs1wGyWGnKnzis4k-137" value="" style="endArrow=none;html=1;rounded=0;exitX=0.75;exitY=0;exitDx=0;exitDy=0;entryX=0;entryY=1;entryDx=0;entryDy=0;fontStyle=1;fontSize=14;" parent="1" source="pNNXKs1wGyWGnKnzis4k-15" target="pNNXKs1wGyWGnKnzis4k-134" edge="1">
          <mxGeometry relative="1" as="geometry">
            <mxPoint x="595" y="68" as="sourcePoint" />
            <mxPoint x="838" y="196.99999999999997" as="targetPoint" />
          </mxGeometry>
        </mxCell>
        <mxCell id="pNNXKs1wGyWGnKnzis4k-138" value="&lt;strong style=&quot;font-size: 14px;&quot;&gt;(0,N)&lt;/strong&gt;" style="edgeLabel;html=1;align=center;verticalAlign=middle;resizable=0;points=[];fontStyle=1;fontSize=14;" parent="pNNXKs1wGyWGnKnzis4k-137" vertex="1" connectable="0">
          <mxGeometry x="0.5807" y="2" relative="1" as="geometry">
            <mxPoint x="9" y="-3" as="offset" />
          </mxGeometry>
        </mxCell>
        <mxCell id="pNNXKs1wGyWGnKnzis4k-139" value="&lt;span style=&quot;font-size: 14px;&quot;&gt;&lt;font style=&quot;font-size: 14px;&quot;&gt;Receives&lt;/font&gt;&lt;/span&gt;" style="shape=rhombus;perimeter=rhombusPerimeter;whiteSpace=wrap;html=1;align=center;fontStyle=1;fontSize=14;" parent="1" vertex="1">
          <mxGeometry x="-200" y="-281.23" width="120" height="60" as="geometry" />
        </mxCell>
        <mxCell id="pNNXKs1wGyWGnKnzis4k-140" value="" style="endArrow=none;html=1;rounded=0;exitX=1;exitY=1;exitDx=0;exitDy=0;entryX=0.5;entryY=0;entryDx=0;entryDy=0;fontStyle=1;fontSize=14;" parent="1" source="pNNXKs1wGyWGnKnzis4k-139" target="ppLR7rw1qFO7lx_NXZap-3" edge="1">
          <mxGeometry relative="1" as="geometry">
            <mxPoint x="-101.65" y="276" as="sourcePoint" />
            <mxPoint x="159" y="-173.73000000000002" as="targetPoint" />
          </mxGeometry>
        </mxCell>
        <mxCell id="pNNXKs1wGyWGnKnzis4k-141" value="(1,1)" style="edgeLabel;html=1;align=center;verticalAlign=middle;resizable=0;points=[];fontStyle=1;fontSize=14;" parent="pNNXKs1wGyWGnKnzis4k-140" vertex="1" connectable="0">
          <mxGeometry x="-0.8092" relative="1" as="geometry">
            <mxPoint x="13" as="offset" />
          </mxGeometry>
        </mxCell>
        <mxCell id="pNNXKs1wGyWGnKnzis4k-142" value="(0,N)" style="edgeLabel;html=1;align=center;verticalAlign=middle;resizable=0;points=[];fontStyle=1;fontSize=14;" parent="1" vertex="1" connectable="0">
          <mxGeometry x="-289.99966658609037" y="-83.73461046619255" as="geometry">
            <mxPoint x="-101" y="-71" as="offset" />
          </mxGeometry>
        </mxCell>
        <mxCell id="pNNXKs1wGyWGnKnzis4k-143" value="" style="endArrow=none;html=1;rounded=0;fontStyle=1;fontSize=14;exitX=1;exitY=0.5;exitDx=0;exitDy=0;entryX=0;entryY=0.5;entryDx=0;entryDy=0;" parent="1" source="ppLR7rw1qFO7lx_NXZap-3" target="ppLR7rw1qFO7lx_NXZap-14" edge="1">
          <mxGeometry relative="1" as="geometry">
            <mxPoint x="180" y="-150" as="sourcePoint" />
            <mxPoint x="590" y="-240" as="targetPoint" />
          </mxGeometry>
        </mxCell>
        <mxCell id="pNNXKs1wGyWGnKnzis4k-144" value="&lt;b&gt;&lt;font style=&quot;font-size: 14px;&quot;&gt;Access&lt;/font&gt;&lt;/b&gt;" style="shape=rhombus;perimeter=rhombusPerimeter;whiteSpace=wrap;html=1;align=center;" parent="1" vertex="1">
          <mxGeometry x="1042.5" y="-865.8199999999999" width="120" height="60" as="geometry" />
        </mxCell>
        <mxCell id="pNNXKs1wGyWGnKnzis4k-145" value="" style="endArrow=none;html=1;rounded=0;entryX=0;entryY=0.5;entryDx=0;entryDy=0;exitX=1;exitY=1;exitDx=0;exitDy=0;" parent="1" source="pNNXKs1wGyWGnKnzis4k-86" target="pNNXKs1wGyWGnKnzis4k-144" edge="1">
          <mxGeometry relative="1" as="geometry">
            <mxPoint x="1307.5" y="-285.82" as="sourcePoint" />
            <mxPoint x="1287.5" y="-455.82" as="targetPoint" />
          </mxGeometry>
        </mxCell>
        <mxCell id="pNNXKs1wGyWGnKnzis4k-146" value="" style="endArrow=none;html=1;rounded=0;exitX=1;exitY=0.5;exitDx=0;exitDy=0;entryX=0;entryY=0.75;entryDx=0;entryDy=0;" parent="1" source="pNNXKs1wGyWGnKnzis4k-144" target="pNNXKs1wGyWGnKnzis4k-3" edge="1">
          <mxGeometry relative="1" as="geometry">
            <mxPoint x="1307.5" y="-275.82" as="sourcePoint" />
            <mxPoint x="1617.5" y="-285.82" as="targetPoint" />
          </mxGeometry>
        </mxCell>
        <mxCell id="pNNXKs1wGyWGnKnzis4k-147" value="(0,N)" style="edgeLabel;html=1;align=center;verticalAlign=middle;resizable=0;points=[];fontStyle=1;fontSize=14;" parent="1" vertex="1" connectable="0">
          <mxGeometry x="-242.00352570852556" y="-559.3725934978605" as="geometry">
            <mxPoint x="102" y="249" as="offset" />
          </mxGeometry>
        </mxCell>
        <mxCell id="pNNXKs1wGyWGnKnzis4k-148" value="(1,1)" style="edgeLabel;html=1;align=center;verticalAlign=middle;resizable=0;points=[];fontStyle=1;fontSize=14;" parent="1" vertex="1" connectable="0">
          <mxGeometry x="57.99651947330747" y="-410.00006729138994" as="geometry">
            <mxPoint x="29" y="-167" as="offset" />
          </mxGeometry>
        </mxCell>
        <mxCell id="pNNXKs1wGyWGnKnzis4k-150" value="&lt;strong style=&quot;font-size: 14px;&quot;&gt;(1,N)&lt;/strong&gt;" style="edgeLabel;html=1;align=center;verticalAlign=middle;resizable=0;points=[];fontStyle=1;fontSize=14;" parent="1" vertex="1" connectable="0">
          <mxGeometry x="379.99534453125733" y="-920.002663042415" as="geometry">
            <mxPoint x="377" y="340" as="offset" />
          </mxGeometry>
        </mxCell>
        <mxCell id="pNNXKs1wGyWGnKnzis4k-151" value="&lt;strong style=&quot;font-size: 14px;&quot;&gt;(0,N)&lt;/strong&gt;" style="edgeLabel;html=1;align=center;verticalAlign=middle;resizable=0;points=[];fontStyle=1;fontSize=14;" parent="1" vertex="1" connectable="0">
          <mxGeometry x="870.0014324834143" y="-668.373060079139" as="geometry">
            <mxPoint x="318" y="-175" as="offset" />
          </mxGeometry>
        </mxCell>
        <mxCell id="pNNXKs1wGyWGnKnzis4k-152" value="&lt;strong style=&quot;font-size: 14px;&quot;&gt;(1,N)&lt;/strong&gt;" style="edgeLabel;html=1;align=center;verticalAlign=middle;resizable=0;points=[];fontStyle=1;fontSize=14;" parent="1" vertex="1" connectable="0">
          <mxGeometry x="869.9114324834143" y="-657.5330600791389" as="geometry">
            <mxPoint x="144" y="-182" as="offset" />
          </mxGeometry>
        </mxCell>
        <mxCell id="pNNXKs1wGyWGnKnzis4k-153" value="&lt;span style=&quot;font-size: 14px; font-weight: 700;&quot;&gt;Has&lt;/span&gt;" style="shape=rhombus;double=1;perimeter=rhombusPerimeter;whiteSpace=wrap;html=1;align=center;" parent="1" vertex="1">
          <mxGeometry x="-450" y="-381.23" width="120" height="60" as="geometry" />
        </mxCell>
        <mxCell id="pNNXKs1wGyWGnKnzis4k-155" value="&lt;strong style=&quot;font-size: 14px;&quot;&gt;(1,1)&lt;/strong&gt;" style="edgeLabel;html=1;align=center;verticalAlign=middle;resizable=0;points=[];fontStyle=1;fontSize=14;" parent="1" vertex="1" connectable="0">
          <mxGeometry x="1009.668965059778" y="-153.73008307556242" as="geometry">
            <mxPoint x="101" y="-14" as="offset" />
          </mxGeometry>
        </mxCell>
        <mxCell id="pNNXKs1wGyWGnKnzis4k-160" value="Name" style="ellipse;whiteSpace=wrap;html=1;align=center;fontStyle=1" parent="1" vertex="1">
          <mxGeometry x="1290" y="-439.82000000000005" width="100" height="40" as="geometry" />
        </mxCell>
        <mxCell id="pNNXKs1wGyWGnKnzis4k-330" value="Report ID" style="ellipse;whiteSpace=wrap;html=1;align=center;fontStyle=5;" parent="1" vertex="1">
          <mxGeometry x="811" y="-230.00000000000003" width="100" height="40" as="geometry" />
        </mxCell>
        <mxCell id="pNNXKs1wGyWGnKnzis4k-332" value="&lt;font style=&quot;font-size: 14px;&quot;&gt;&lt;span style=&quot;font-size: 14px;&quot;&gt;Position&lt;/span&gt;&lt;/font&gt;" style="ellipse;whiteSpace=wrap;html=1;align=center;fontStyle=1;fontSize=14;" parent="1" vertex="1">
          <mxGeometry x="1525.39" y="-970" width="100" height="40" as="geometry" />
        </mxCell>
        <mxCell id="DgcD9Y-jSIW44tKop5Hs-2" value="" style="endArrow=none;html=1;rounded=0;exitX=0;exitY=0.5;exitDx=0;exitDy=0;entryX=0.5;entryY=1;entryDx=0;entryDy=0;fontStyle=1;fontSize=14;" parent="1" source="pNNXKs1wGyWGnKnzis4k-95" target="pNNXKs1wGyWGnKnzis4k-1" edge="1">
          <mxGeometry relative="1" as="geometry">
            <mxPoint x="548" y="-393" as="sourcePoint" />
            <mxPoint x="168" y="-372" as="targetPoint" />
          </mxGeometry>
        </mxCell>
        <mxCell id="DgcD9Y-jSIW44tKop5Hs-6" value="&lt;u style=&quot;font-size: 14px; font-weight: 700;&quot;&gt;PaymentID&lt;/u&gt;" style="ellipse;whiteSpace=wrap;html=1;align=center;fontStyle=4;" parent="1" vertex="1">
          <mxGeometry x="100" y="-321.23" width="100" height="40" as="geometry" />
        </mxCell>
        <mxCell id="ppLR7rw1qFO7lx_NXZap-2" value="&lt;strong style=&quot;font-size: 14px;&quot;&gt;(0,N)&lt;/strong&gt;" style="edgeLabel;html=1;align=center;verticalAlign=middle;resizable=0;points=[];fontStyle=1;fontSize=14;" parent="1" vertex="1" connectable="0">
          <mxGeometry x="959.4976771576559" y="-541.1070766449496" as="geometry">
            <mxPoint x="35" y="-146" as="offset" />
          </mxGeometry>
        </mxCell>
        <mxCell id="ppLR7rw1qFO7lx_NXZap-4" value="&lt;span style=&quot;font-size: 14px;&quot;&gt;&lt;font style=&quot;font-size: 14px;&quot;&gt;Message&lt;/font&gt;&lt;/span&gt;" style="ellipse;whiteSpace=wrap;html=1;align=center;fontStyle=1;fontSize=14;" parent="1" vertex="1">
          <mxGeometry x="212" y="-40.000000000000014" width="120" height="40" as="geometry" />
        </mxCell>
        <mxCell id="ppLR7rw1qFO7lx_NXZap-5" value="" style="endArrow=none;html=1;rounded=0;exitX=0.5;exitY=0;exitDx=0;exitDy=0;fontStyle=1;fontSize=14;entryX=0.5;entryY=1;entryDx=0;entryDy=0;" parent="1" source="ppLR7rw1qFO7lx_NXZap-6" target="ppLR7rw1qFO7lx_NXZap-3" edge="1">
          <mxGeometry relative="1" as="geometry">
            <mxPoint x="127" y="110" as="sourcePoint" />
            <mxPoint x="177" y="110" as="targetPoint" />
          </mxGeometry>
        </mxCell>
        <mxCell id="ppLR7rw1qFO7lx_NXZap-6" value="&lt;span style=&quot;font-size: 14px;&quot;&gt;&lt;font style=&quot;font-size: 14px;&quot;&gt;&lt;u style=&quot;font-size: 14px;&quot;&gt;Notification ID&lt;/u&gt;&lt;/font&gt;&lt;/span&gt;" style="ellipse;whiteSpace=wrap;html=1;align=center;fontStyle=1;fontSize=14;" parent="1" vertex="1">
          <mxGeometry x="-20" y="-43.72999999999999" width="120" height="40" as="geometry" />
        </mxCell>
        <mxCell id="ppLR7rw1qFO7lx_NXZap-7" value="&lt;span style=&quot;font-size: 14px;&quot;&gt;&lt;font style=&quot;font-size: 14px;&quot;&gt;Notification Type&lt;/font&gt;&lt;/span&gt;" style="ellipse;whiteSpace=wrap;html=1;align=center;fontStyle=1;fontSize=14;" parent="1" vertex="1">
          <mxGeometry x="95" y="-73.73000000000002" width="110" height="50" as="geometry" />
        </mxCell>
        <mxCell id="ppLR7rw1qFO7lx_NXZap-8" value="" style="endArrow=none;html=1;rounded=0;exitX=0.5;exitY=0;exitDx=0;exitDy=0;entryX=0.5;entryY=1;entryDx=0;entryDy=0;fontStyle=1;fontSize=14;" parent="1" source="ppLR7rw1qFO7lx_NXZap-7" target="ppLR7rw1qFO7lx_NXZap-3" edge="1">
          <mxGeometry relative="1" as="geometry">
            <mxPoint x="47" y="15" as="sourcePoint" />
            <mxPoint x="97" y="15" as="targetPoint" />
          </mxGeometry>
        </mxCell>
        <mxCell id="ppLR7rw1qFO7lx_NXZap-9" value="" style="endArrow=none;html=1;rounded=0;exitX=0.5;exitY=1;exitDx=0;exitDy=0;entryX=0.5;entryY=0;entryDx=0;entryDy=0;fontStyle=1;fontSize=14;" parent="1" source="ppLR7rw1qFO7lx_NXZap-3" target="ppLR7rw1qFO7lx_NXZap-4" edge="1">
          <mxGeometry relative="1" as="geometry">
            <mxPoint x="307" y="65" as="sourcePoint" />
            <mxPoint x="467" y="65" as="targetPoint" />
          </mxGeometry>
        </mxCell>
        <mxCell id="ppLR7rw1qFO7lx_NXZap-10" value="&lt;span style=&quot;font-size: 14px;&quot;&gt;&lt;font style=&quot;font-size: 14px;&quot;&gt;Date&lt;/font&gt;&lt;/span&gt;" style="ellipse;whiteSpace=wrap;html=1;align=center;fontStyle=1;fontSize=14;" parent="1" vertex="1">
          <mxGeometry x="-52" y="-93.72999999999999" width="100" height="40" as="geometry" />
        </mxCell>
        <mxCell id="ppLR7rw1qFO7lx_NXZap-11" value="" style="endArrow=none;html=1;rounded=0;exitX=0.5;exitY=0;exitDx=0;exitDy=0;entryX=0.5;entryY=1;entryDx=0;entryDy=0;fontStyle=1;fontSize=14;" parent="1" source="ppLR7rw1qFO7lx_NXZap-10" target="ppLR7rw1qFO7lx_NXZap-3" edge="1">
          <mxGeometry relative="1" as="geometry">
            <mxPoint x="47" y="15" as="sourcePoint" />
            <mxPoint x="97" y="15" as="targetPoint" />
          </mxGeometry>
        </mxCell>
        <mxCell id="ppLR7rw1qFO7lx_NXZap-12" value="" style="endArrow=none;html=1;rounded=0;entryX=0;entryY=0.5;entryDx=0;entryDy=0;fontStyle=1;fontSize=14;" parent="1" target="ppLR7rw1qFO7lx_NXZap-3" edge="1">
          <mxGeometry relative="1" as="geometry">
            <mxPoint x="180" y="-150" as="sourcePoint" />
            <mxPoint x="783" y="-303" as="targetPoint" />
          </mxGeometry>
        </mxCell>
        <mxCell id="ppLR7rw1qFO7lx_NXZap-3" value="&lt;span style=&quot;font-size: 14px;&quot;&gt;Notification&lt;/span&gt;" style="whiteSpace=wrap;html=1;align=center;fontSize=14;fontStyle=1" parent="1" vertex="1">
          <mxGeometry x="120" y="-173.73" width="100" height="40" as="geometry" />
        </mxCell>
        <mxCell id="ppLR7rw1qFO7lx_NXZap-14" value="&lt;b&gt;&lt;font style=&quot;font-size: 14px;&quot;&gt;Attached_to&lt;/font&gt;&lt;/b&gt;" style="shape=rhombus;perimeter=rhombusPerimeter;whiteSpace=wrap;html=1;align=center;" parent="1" vertex="1">
          <mxGeometry x="455" y="-183.73" width="120" height="60" as="geometry" />
        </mxCell>
        <mxCell id="ppLR7rw1qFO7lx_NXZap-15" value="" style="endArrow=none;html=1;rounded=0;fontStyle=1;fontSize=14;exitX=1;exitY=0.5;exitDx=0;exitDy=0;entryX=0;entryY=0.5;entryDx=0;entryDy=0;" parent="1" source="ppLR7rw1qFO7lx_NXZap-14" target="pNNXKs1wGyWGnKnzis4k-19" edge="1">
          <mxGeometry relative="1" as="geometry">
            <mxPoint x="579" y="-93.73000000000002" as="sourcePoint" />
            <mxPoint x="797" y="-93.73000000000002" as="targetPoint" />
          </mxGeometry>
        </mxCell>
        <mxCell id="ppLR7rw1qFO7lx_NXZap-17" value="&lt;strong style=&quot;font-size: 14px;&quot;&gt;(0,N)&lt;/strong&gt;" style="edgeLabel;html=1;align=center;verticalAlign=middle;resizable=0;points=[];fontStyle=1;fontSize=14;" parent="1" vertex="1" connectable="0">
          <mxGeometry x="514.998965059778" y="-133.73008307556242" as="geometry">
            <mxPoint x="101" y="-14" as="offset" />
          </mxGeometry>
        </mxCell>
        <mxCell id="ppLR7rw1qFO7lx_NXZap-18" value="&lt;strong style=&quot;font-size: 14px;&quot;&gt;(1,N)&lt;/strong&gt;" style="edgeLabel;html=1;align=center;verticalAlign=middle;resizable=0;points=[];fontStyle=1;fontSize=14;" parent="1" vertex="1" connectable="0">
          <mxGeometry x="319.998965059778" y="-143.73008307556242" as="geometry">
            <mxPoint x="101" y="-14" as="offset" />
          </mxGeometry>
        </mxCell>
        <mxCell id="ppLR7rw1qFO7lx_NXZap-25" value="" style="endArrow=none;html=1;rounded=0;exitX=0.5;exitY=1;exitDx=0;exitDy=0;entryX=0.5;entryY=0;entryDx=0;entryDy=0;fontStyle=1;fontSize=14;" parent="1" source="pNNXKs1wGyWGnKnzis4k-2" edge="1">
          <mxGeometry relative="1" as="geometry">
            <mxPoint x="1194" y="-462" as="sourcePoint" />
            <mxPoint x="1184" y="-390.46000000000004" as="targetPoint" />
          </mxGeometry>
        </mxCell>
        <mxCell id="ppLR7rw1qFO7lx_NXZap-26" value="" style="endArrow=none;html=1;rounded=0;exitX=0.5;exitY=1;exitDx=0;exitDy=0;entryX=0.5;entryY=0;entryDx=0;entryDy=0;fontStyle=1;fontSize=14;" parent="1" source="pNNXKs1wGyWGnKnzis4k-2" target="pNNXKs1wGyWGnKnzis4k-131" edge="1">
          <mxGeometry relative="1" as="geometry">
            <mxPoint x="1184" y="-472" as="sourcePoint" />
            <mxPoint x="1184" y="-390.46000000000004" as="targetPoint" />
          </mxGeometry>
        </mxCell>
        <mxCell id="ppLR7rw1qFO7lx_NXZap-30" value="&lt;strong style=&quot;font-size: 14px;&quot;&gt;(0,N)&lt;/strong&gt;" style="edgeLabel;html=1;align=center;verticalAlign=middle;resizable=0;points=[];fontStyle=1;fontSize=14;" parent="1" vertex="1" connectable="0">
          <mxGeometry x="1079.9989650597781" y="-230.00008307556243" as="geometry">
            <mxPoint x="101" y="-14" as="offset" />
          </mxGeometry>
        </mxCell>
        <mxCell id="ppLR7rw1qFO7lx_NXZap-31" value="(1,N)" style="edgeLabel;html=1;align=center;verticalAlign=middle;resizable=0;points=[];fontStyle=1;fontSize=14;" parent="1" vertex="1" connectable="0">
          <mxGeometry x="-101.00348052669253" y="-439.82006729138993" as="geometry">
            <mxPoint x="29" y="-167" as="offset" />
          </mxGeometry>
        </mxCell>
        <mxCell id="ppLR7rw1qFO7lx_NXZap-32" value="&lt;b&gt;&lt;font style=&quot;font-size: 14px;&quot;&gt;Has&lt;/font&gt;&lt;/b&gt;" style="shape=rhombus;perimeter=rhombusPerimeter;whiteSpace=wrap;html=1;align=center;" parent="1" vertex="1">
          <mxGeometry x="-62" y="-875.82" width="120" height="60" as="geometry" />
        </mxCell>
        <mxCell id="ppLR7rw1qFO7lx_NXZap-33" value="" style="endArrow=none;html=1;rounded=0;exitX=0.5;exitY=1;exitDx=0;exitDy=0;entryX=0;entryY=0;entryDx=0;entryDy=0;" parent="1" source="pNNXKs1wGyWGnKnzis4k-1" target="ppLR7rw1qFO7lx_NXZap-32" edge="1">
          <mxGeometry relative="1" as="geometry">
            <mxPoint x="-20" y="-780" as="sourcePoint" />
            <mxPoint x="140" y="-780" as="targetPoint" />
          </mxGeometry>
        </mxCell>
        <mxCell id="ppLR7rw1qFO7lx_NXZap-34" value="&lt;b&gt;&lt;font style=&quot;font-size: 14px;&quot;&gt;Card&lt;/font&gt;&lt;/b&gt;" style="whiteSpace=wrap;html=1;align=center;" parent="1" vertex="1">
          <mxGeometry x="70" y="-785.82" width="100" height="40" as="geometry" />
        </mxCell>
        <mxCell id="ppLR7rw1qFO7lx_NXZap-35" value="" style="endArrow=none;html=1;rounded=0;exitX=1;exitY=1;exitDx=0;exitDy=0;entryX=0.5;entryY=0;entryDx=0;entryDy=0;" parent="1" source="ppLR7rw1qFO7lx_NXZap-32" target="ppLR7rw1qFO7lx_NXZap-34" edge="1">
          <mxGeometry relative="1" as="geometry">
            <mxPoint x="-20" y="-790" as="sourcePoint" />
            <mxPoint x="140" y="-790" as="targetPoint" />
          </mxGeometry>
        </mxCell>
        <mxCell id="ppLR7rw1qFO7lx_NXZap-37" value="(0,N)" style="edgeLabel;html=1;align=center;verticalAlign=middle;resizable=0;points=[];fontStyle=1;fontSize=14;" parent="1" vertex="1" connectable="0">
          <mxGeometry x="-90.00348052669253" y="-711.82006729139" as="geometry">
            <mxPoint x="29" y="-167" as="offset" />
          </mxGeometry>
        </mxCell>
        <mxCell id="ppLR7rw1qFO7lx_NXZap-38" value="(1,1)" style="edgeLabel;html=1;align=center;verticalAlign=middle;resizable=0;points=[];fontStyle=1;fontSize=14;" parent="1" vertex="1" connectable="0">
          <mxGeometry x="29.996519473307472" y="-650.00006729139" as="geometry">
            <mxPoint x="29" y="-167" as="offset" />
          </mxGeometry>
        </mxCell>
        <mxCell id="ppLR7rw1qFO7lx_NXZap-39" value="&lt;b&gt;&lt;font style=&quot;font-size: 14px;&quot;&gt;CardType&lt;/font&gt;&lt;/b&gt;" style="ellipse;whiteSpace=wrap;html=1;align=center;" parent="1" vertex="1">
          <mxGeometry x="-32.31" y="-734.73" width="100" height="40" as="geometry" />
        </mxCell>
        <mxCell id="ppLR7rw1qFO7lx_NXZap-40" value="" style="endArrow=none;html=1;rounded=0;exitX=0.5;exitY=0;exitDx=0;exitDy=0;entryX=0.5;entryY=1;entryDx=0;entryDy=0;" parent="1" source="ppLR7rw1qFO7lx_NXZap-39" target="ppLR7rw1qFO7lx_NXZap-34" edge="1">
          <mxGeometry relative="1" as="geometry">
            <mxPoint x="-50" y="-687.53" as="sourcePoint" />
            <mxPoint x="30" y="-737.53" as="targetPoint" />
          </mxGeometry>
        </mxCell>
        <mxCell id="ppLR7rw1qFO7lx_NXZap-41" value="" style="endArrow=none;html=1;rounded=0;exitX=0.5;exitY=0;exitDx=0;exitDy=0;entryX=0.5;entryY=1;entryDx=0;entryDy=0;" parent="1" source="ppLR7rw1qFO7lx_NXZap-42" target="ppLR7rw1qFO7lx_NXZap-34" edge="1">
          <mxGeometry relative="1" as="geometry">
            <mxPoint x="140" y="-675" as="sourcePoint" />
            <mxPoint x="140" y="-715" as="targetPoint" />
          </mxGeometry>
        </mxCell>
        <mxCell id="ppLR7rw1qFO7lx_NXZap-42" value="&lt;b&gt;&lt;font style=&quot;font-size: 14px;&quot;&gt;CardNumber&lt;/font&gt;&lt;/b&gt;" style="ellipse;whiteSpace=wrap;html=1;align=center;fontStyle=4;" parent="1" vertex="1">
          <mxGeometry x="-20" y="-678.8199999999999" width="100" height="40" as="geometry" />
        </mxCell>
        <mxCell id="ppLR7rw1qFO7lx_NXZap-43" value="&lt;b&gt;&lt;font style=&quot;font-size: 14px;&quot;&gt;CardHolderName&lt;/font&gt;&lt;/b&gt;" style="ellipse;whiteSpace=wrap;html=1;align=center;" parent="1" vertex="1">
          <mxGeometry x="180" y="-735.82" width="120" height="45.82" as="geometry" />
        </mxCell>
        <mxCell id="ppLR7rw1qFO7lx_NXZap-44" value="" style="endArrow=none;html=1;rounded=0;exitX=0.5;exitY=0;exitDx=0;exitDy=0;entryX=0.5;entryY=1;entryDx=0;entryDy=0;" parent="1" source="ppLR7rw1qFO7lx_NXZap-43" target="ppLR7rw1qFO7lx_NXZap-34" edge="1">
          <mxGeometry relative="1" as="geometry">
            <mxPoint x="-20" y="-780" as="sourcePoint" />
            <mxPoint x="60" y="-830" as="targetPoint" />
          </mxGeometry>
        </mxCell>
        <mxCell id="ppLR7rw1qFO7lx_NXZap-45" value="&lt;b&gt;&lt;font style=&quot;font-size: 14px;&quot;&gt;BankName&lt;/font&gt;&lt;/b&gt;" style="ellipse;whiteSpace=wrap;html=1;align=center;" parent="1" vertex="1">
          <mxGeometry x="155.38" y="-677.5299999999999" width="100" height="40" as="geometry" />
        </mxCell>
        <mxCell id="ppLR7rw1qFO7lx_NXZap-46" value="" style="endArrow=none;html=1;rounded=0;exitX=0.5;exitY=0;exitDx=0;exitDy=0;entryX=0.5;entryY=1;entryDx=0;entryDy=0;" parent="1" source="ppLR7rw1qFO7lx_NXZap-45" target="ppLR7rw1qFO7lx_NXZap-34" edge="1">
          <mxGeometry relative="1" as="geometry">
            <mxPoint x="-20" y="-780" as="sourcePoint" />
            <mxPoint x="60" y="-830" as="targetPoint" />
          </mxGeometry>
        </mxCell>
        <mxCell id="ppLR7rw1qFO7lx_NXZap-47" value="&lt;b&gt;&lt;font style=&quot;font-size: 14px;&quot;&gt;ExpirationDate&lt;/font&gt;&lt;/b&gt;" style="ellipse;whiteSpace=wrap;html=1;align=center;" parent="1" vertex="1">
          <mxGeometry x="67.69" y="-715.19" width="104.62" height="46.82" as="geometry" />
        </mxCell>
        <mxCell id="ppLR7rw1qFO7lx_NXZap-48" value="" style="endArrow=none;html=1;rounded=0;exitX=0.5;exitY=0;exitDx=0;exitDy=0;entryX=0.5;entryY=1;entryDx=0;entryDy=0;" parent="1" source="ppLR7rw1qFO7lx_NXZap-47" target="ppLR7rw1qFO7lx_NXZap-34" edge="1">
          <mxGeometry relative="1" as="geometry">
            <mxPoint x="65" y="-618.37" as="sourcePoint" />
            <mxPoint x="145" y="-668.37" as="targetPoint" />
          </mxGeometry>
        </mxCell>
        <mxCell id="ppLR7rw1qFO7lx_NXZap-49" value="" style="endArrow=none;html=1;rounded=0;fontStyle=1;fontSize=14;entryX=0.5;entryY=0;entryDx=0;entryDy=0;exitX=0.5;exitY=1;exitDx=0;exitDy=0;" parent="1" source="pNNXKs1wGyWGnKnzis4k-332" target="pNNXKs1wGyWGnKnzis4k-3" edge="1">
          <mxGeometry relative="1" as="geometry">
            <mxPoint x="1580" y="-740" as="sourcePoint" />
            <mxPoint x="1580" y="-820" as="targetPoint" />
          </mxGeometry>
        </mxCell>
        <mxCell id="ppLR7rw1qFO7lx_NXZap-50" value="" style="endArrow=none;html=1;rounded=0;exitX=0.5;exitY=0;exitDx=0;exitDy=0;entryX=0.5;entryY=0;entryDx=0;entryDy=0;" parent="1" source="ppLR7rw1qFO7lx_NXZap-51" target="pNNXKs1wGyWGnKnzis4k-3" edge="1">
          <mxGeometry relative="1" as="geometry">
            <mxPoint x="790" y="-430" as="sourcePoint" />
            <mxPoint x="790" y="-470" as="targetPoint" />
          </mxGeometry>
        </mxCell>
        <mxCell id="ppLR7rw1qFO7lx_NXZap-51" value="&lt;span style=&quot;font-size: 14px; font-weight: 700;&quot;&gt;RegulatorID&lt;/span&gt;" style="ellipse;whiteSpace=wrap;html=1;align=center;fontStyle=4;" parent="1" vertex="1">
          <mxGeometry x="1290" y="-970" width="100" height="40" as="geometry" />
        </mxCell>
        <mxCell id="ppLR7rw1qFO7lx_NXZap-53" value="&lt;b&gt;&lt;font style=&quot;font-size: 14px;&quot;&gt;Run&lt;/font&gt;&lt;/b&gt;" style="shape=rhombus;perimeter=rhombusPerimeter;whiteSpace=wrap;html=1;align=center;" parent="1" vertex="1">
          <mxGeometry x="1396.5" y="-143.73000000000002" width="120" height="60" as="geometry" />
        </mxCell>
        <mxCell id="ppLR7rw1qFO7lx_NXZap-54" value="" style="endArrow=none;html=1;rounded=0;entryX=0.5;entryY=0;entryDx=0;entryDy=0;exitX=0.5;exitY=1;exitDx=0;exitDy=0;" parent="1" source="ppLR7rw1qFO7lx_NXZap-56" target="ppLR7rw1qFO7lx_NXZap-53" edge="1">
          <mxGeometry relative="1" as="geometry">
            <mxPoint x="1962.5" y="-855.64" as="sourcePoint" />
            <mxPoint x="1282" y="-599.82" as="targetPoint" />
          </mxGeometry>
        </mxCell>
        <mxCell id="ppLR7rw1qFO7lx_NXZap-55" value="" style="endArrow=none;html=1;rounded=0;exitX=0;exitY=0.5;exitDx=0;exitDy=0;entryX=1;entryY=0.5;entryDx=0;entryDy=0;" parent="1" source="ppLR7rw1qFO7lx_NXZap-53" target="pNNXKs1wGyWGnKnzis4k-19" edge="1">
          <mxGeometry relative="1" as="geometry">
            <mxPoint x="1530" y="-390" as="sourcePoint" />
            <mxPoint x="1500" y="183.272705078125" as="targetPoint" />
          </mxGeometry>
        </mxCell>
        <mxCell id="ppLR7rw1qFO7lx_NXZap-58" value="" style="endArrow=none;html=1;rounded=0;entryX=0.5;entryY=0;entryDx=0;entryDy=0;exitX=0.5;exitY=1;exitDx=0;exitDy=0;" parent="1" source="pNNXKs1wGyWGnKnzis4k-3" target="ppLR7rw1qFO7lx_NXZap-56" edge="1">
          <mxGeometry relative="1" as="geometry">
            <mxPoint x="1521" y="-876" as="sourcePoint" />
            <mxPoint x="1516" y="-460" as="targetPoint" />
          </mxGeometry>
        </mxCell>
        <mxCell id="ppLR7rw1qFO7lx_NXZap-56" value="&lt;font style=&quot;font-size: 14px;&quot;&gt;&lt;b&gt;(0, N)&lt;/b&gt;&lt;/font&gt;" style="text;html=1;align=center;verticalAlign=middle;whiteSpace=wrap;rounded=0;" parent="1" vertex="1">
          <mxGeometry x="1426.5" y="-183.73" width="60" height="30" as="geometry" />
        </mxCell>
        <mxCell id="ppLR7rw1qFO7lx_NXZap-59" value="&lt;strong style=&quot;font-size: 14px;&quot;&gt;(1,N)&lt;/strong&gt;" style="edgeLabel;html=1;align=center;verticalAlign=middle;resizable=0;points=[];fontStyle=1;fontSize=14;" parent="1" vertex="1" connectable="0">
          <mxGeometry x="1269.9989650597781" y="-103.73008307556242" as="geometry">
            <mxPoint x="101" y="-14" as="offset" />
          </mxGeometry>
        </mxCell>
        <mxCell id="ppLR7rw1qFO7lx_NXZap-60" value="&lt;span style=&quot;font-size: 14px; font-weight: 700;&quot;&gt;Availability&lt;/span&gt;" style="ellipse;whiteSpace=wrap;html=1;align=center;" parent="1" vertex="1">
          <mxGeometry x="1290" y="-536.8199999999999" width="100" height="40" as="geometry" />
        </mxCell>
        <mxCell id="ayQJ909mAz-Lm4Dvl7QF-1" value="&lt;b&gt;&lt;font style=&quot;font-size: 14px;&quot;&gt;Attached_to&lt;/font&gt;&lt;/b&gt;" style="shape=rhombus;perimeter=rhombusPerimeter;whiteSpace=wrap;html=1;align=center;" vertex="1" parent="1">
          <mxGeometry x="508" y="-342.82" width="120" height="60" as="geometry" />
        </mxCell>
        <mxCell id="ayQJ909mAz-Lm4Dvl7QF-2" value="" style="endArrow=none;html=1;rounded=0;fontStyle=1;fontSize=14;exitX=0.5;exitY=1;exitDx=0;exitDy=0;entryX=0.5;entryY=0;entryDx=0;entryDy=0;" edge="1" parent="1" source="pNNXKs1wGyWGnKnzis4k-15" target="ayQJ909mAz-Lm4Dvl7QF-1">
          <mxGeometry relative="1" as="geometry">
            <mxPoint x="230" y="-144" as="sourcePoint" />
            <mxPoint x="465" y="-144" as="targetPoint" />
          </mxGeometry>
        </mxCell>
        <mxCell id="ayQJ909mAz-Lm4Dvl7QF-3" value="&lt;strong style=&quot;font-size: 14px;&quot;&gt;(1,N)&lt;/strong&gt;" style="edgeLabel;html=1;align=center;verticalAlign=middle;resizable=0;points=[];fontStyle=1;fontSize=14;" vertex="1" connectable="0" parent="1">
          <mxGeometry x="459.998965059778" y="-351.23008307556245" as="geometry">
            <mxPoint x="101" y="-14" as="offset" />
          </mxGeometry>
        </mxCell>
        <mxCell id="ayQJ909mAz-Lm4Dvl7QF-4" value="" style="endArrow=none;html=1;rounded=0;fontStyle=1;fontSize=14;exitX=0;exitY=1;exitDx=0;exitDy=0;entryX=0.5;entryY=0;entryDx=0;entryDy=0;" edge="1" parent="1" source="ayQJ909mAz-Lm4Dvl7QF-1" target="ppLR7rw1qFO7lx_NXZap-3">
          <mxGeometry relative="1" as="geometry">
            <mxPoint x="585" y="-144" as="sourcePoint" />
            <mxPoint x="820" y="-94" as="targetPoint" />
          </mxGeometry>
        </mxCell>
        <mxCell id="ayQJ909mAz-Lm4Dvl7QF-5" value="&lt;strong style=&quot;font-size: 14px;&quot;&gt;(1,N)&lt;/strong&gt;" style="edgeLabel;html=1;align=center;verticalAlign=middle;resizable=0;points=[];fontStyle=1;fontSize=14;" vertex="1" connectable="0" parent="1">
          <mxGeometry x="399.998965059778" y="-270.00008307556243" as="geometry">
            <mxPoint x="101" y="-14" as="offset" />
          </mxGeometry>
        </mxCell>
      </root>
    </mxGraphModel>
  </diagram>
</mxfile>
